<svg width="281" height="281" viewBox="0 0 281 281" fill="none" xmlns="http://www.w3.org/2000/svg">
<path fill-rule="evenodd" clip-rule="evenodd" d="M209.473 14.0633C206.336 13.2553 204.023 10.4662 204.023 7.1497C204.023 3.20103 207.302 0 211.346 0C215.39 0 218.669 3.20103 218.669 7.1497C218.669 10.0298 216.925 12.5121 214.412 13.6447V26.4373L198.573 41.9006V57.5302H193.805V41.9006L209.473 26.4373V14.0633ZM182.565 58.1953V36.2473L192.506 26.3821C193.377 26.7389 194.334 26.9361 195.338 26.9361C199.382 26.9361 202.661 23.7351 202.661 19.7864C202.661 15.8377 199.382 12.6367 195.338 12.6367C191.293 12.6367 188.015 15.8377 188.015 19.7864C188.015 21.2056 188.438 22.5282 189.168 23.6403L177.796 34.5846V58.1953H182.565ZM166.216 31.5917V58.1953H161.788V31.5917L177.626 16.2947V14.1051C174.403 13.3556 172.006 10.5259 172.006 7.1497C172.006 3.20103 175.285 0 179.329 0C183.374 0 186.652 3.20103 186.652 7.1497C186.652 9.96426 184.986 12.399 182.565 13.5654V16.2947L166.216 31.5917ZM150.207 58.1953V27.2686C153.17 26.3524 155.316 23.6467 155.316 20.4515C155.316 16.5028 152.038 13.3018 147.993 13.3018C143.949 13.3018 140.67 16.5028 140.67 20.4515C140.67 23.5229 142.654 26.142 145.439 27.1541V58.1953H150.207ZM134.199 13.9668V58.1953H129.43V13.8524C126.646 12.8403 124.662 10.2212 124.662 7.1497C124.662 3.20103 127.94 0 131.985 0C136.029 0 139.308 3.20103 139.308 7.1497C139.308 10.345 137.161 13.0507 134.199 13.9668ZM118.19 58.1953V26.6035C121.153 25.6873 123.299 22.9816 123.299 19.7864C123.299 15.8377 120.021 12.6367 115.976 12.6367C111.932 12.6367 108.653 15.8377 108.653 19.7864C108.653 22.8578 110.637 25.4769 113.422 26.489V58.1953H118.19ZM102.182 30.0953V58.1953H97.4133V31.9242L81.7454 16.6272V13.9668C78.7832 13.0506 76.6364 10.3449 76.6364 7.1497C76.6364 3.20103 79.915 0 83.9594 0C88.0038 0 91.2825 3.20103 91.2825 7.1497C91.2825 10.345 89.1356 13.0507 86.1733 13.9669V14.7982L102.182 30.0953ZM86.1734 34.4183V60.1905H81.7455V36.2473L71.701 26.5939C70.6042 27.2336 69.3215 27.6012 67.951 27.6012C63.9066 27.6012 60.6279 24.4002 60.6279 20.4515C60.6279 16.5028 63.9066 13.3018 67.951 13.3018C71.9954 13.3018 75.274 16.5028 75.274 20.4515C75.274 21.4334 75.0713 22.3691 74.7044 23.2208L86.1734 34.4183ZM14.4043 72.4947C13.5766 75.5573 10.7199 77.8154 7.32303 77.8154C3.27863 77.8154 0 74.6143 0 70.6657C0 66.717 3.27863 63.516 7.32303 63.516C10.2729 63.516 12.8154 65.2189 13.9755 67.6728H27.0781L42.9163 83.1361H58.9248V87.7917H42.9163L27.0781 72.4947H14.4043ZM59.606 98.7657H37.1261L27.0217 89.0596C27.3872 88.2092 27.5891 87.2753 27.5891 86.2953C27.5891 82.3466 24.3105 79.1456 20.2661 79.1456C16.2217 79.1456 12.9431 82.3466 12.9431 86.2953C12.9431 90.2439 16.2217 93.445 20.2661 93.445C21.7197 93.445 23.0743 93.0315 24.2134 92.3184L35.423 103.421H59.606V98.7657ZM32.3576 114.728H59.6061V119.051H32.3576L16.6897 103.588H14.447C13.6793 106.734 10.7811 109.075 7.32303 109.075C3.27863 109.075 0 105.874 0 101.925C0 97.9762 3.27863 94.7751 7.32303 94.7751C10.2058 94.7751 12.6996 96.4015 13.8942 98.7657H16.6897L32.3576 114.728ZM59.606 130.357H27.9297C26.9913 127.465 24.22 125.369 20.9473 125.369C16.9029 125.369 13.6243 128.57 13.6243 132.519C13.6243 136.468 16.9029 139.669 20.9473 139.669C24.0932 139.669 26.7758 137.732 27.8124 135.013H59.606V130.357ZM14.3054 145.987H59.606V150.643H14.1882C13.1515 153.361 10.4689 155.298 7.32303 155.298C3.27863 155.298 0 152.097 0 148.149C0 144.2 3.27863 140.999 7.32303 140.999C10.5957 140.999 13.367 143.095 14.3054 145.987ZM59.606 161.617H27.2485C26.3101 158.724 23.5388 156.628 20.2661 156.628C16.2217 156.628 12.9431 159.829 12.9431 163.778C12.9431 167.727 16.2217 170.928 20.2661 170.928C23.412 170.928 26.0946 168.991 27.1312 166.272H59.606V161.617ZM30.8248 177.246H59.606V181.902H32.6982L17.0303 197.199H14.3054C13.367 200.091 10.5957 202.187 7.32303 202.187C3.27863 202.187 0 198.986 0 195.037C0 191.089 3.27863 187.888 7.32303 187.888C10.5957 187.888 13.367 189.984 14.3054 192.876H15.1569L30.8248 177.246ZM35.2527 192.876H61.6497V197.199H37.1261L27.2386 207.006C27.8938 208.076 28.2703 209.329 28.2703 210.667C28.2703 214.616 24.9917 217.817 20.9473 217.817C16.9029 217.817 13.6243 214.616 13.6243 210.667C13.6243 206.718 16.9029 203.517 20.9473 203.517C21.953 203.517 22.9114 203.715 23.7838 204.073L35.2527 192.876ZM266.596 208.838C267.423 205.775 270.28 203.517 273.677 203.517C277.721 203.517 281 206.718 281 210.667C281 214.616 277.721 217.817 273.677 217.817C270.727 217.817 268.185 216.114 267.024 213.66H253.922L238.084 198.196H222.075V193.541H238.084L253.922 208.838H266.596ZM221.394 182.567H243.874L253.978 192.273C253.613 193.123 253.411 194.057 253.411 195.037C253.411 198.986 256.69 202.187 260.734 202.187C264.778 202.187 268.057 198.986 268.057 195.037C268.057 191.089 264.778 187.888 260.734 187.888C259.28 187.888 257.926 188.301 256.787 189.014L245.577 177.911H221.394V182.567ZM248.642 166.605H221.394V162.282H248.642L264.31 177.745H266.553C267.321 174.598 270.219 172.258 273.677 172.258C277.721 172.258 281 175.459 281 179.408C281 183.356 277.721 186.557 273.677 186.557C270.794 186.557 268.3 184.931 267.106 182.567H264.31L248.642 166.605ZM221.394 150.975H253.07C254.009 153.867 256.78 155.963 260.053 155.963C264.097 155.963 267.376 152.762 267.376 148.814C267.376 144.865 264.097 141.664 260.053 141.664C256.907 141.664 254.224 143.601 253.188 146.32H221.394V150.975ZM266.695 135.346H221.394V130.69H266.812C267.848 127.971 270.531 126.034 273.677 126.034C277.721 126.034 281 129.235 281 133.184C281 137.133 277.721 140.334 273.677 140.334C270.404 140.334 267.633 138.238 266.695 135.346ZM221.394 119.716H253.752C254.69 122.608 257.461 124.704 260.734 124.704C264.778 124.704 268.057 121.503 268.057 117.554C268.057 113.606 264.778 110.405 260.734 110.405C257.588 110.405 254.905 112.341 253.869 115.06H221.394V119.716ZM250.175 104.086H221.394V99.4308H248.302L263.97 84.1337H266.695C267.633 81.2416 270.404 79.1456 273.677 79.1456C277.721 79.1456 281 82.3466 281 86.2953C281 90.2439 277.721 93.445 273.677 93.445C270.404 93.445 267.633 91.3489 266.695 88.4568H265.843L250.175 104.086ZM245.747 88.4568H219.35V84.1337H243.874L253.761 74.327C253.106 73.2561 252.73 72.0038 252.73 70.6657C252.73 66.717 256.008 63.516 260.053 63.516C264.097 63.516 267.376 66.717 267.376 70.6657C267.376 74.6143 264.097 77.8154 260.053 77.8154C259.047 77.8154 258.089 77.6174 257.216 77.2593L245.747 88.4568ZM74.5927 273.85C74.5927 270.534 72.2799 267.745 69.143 266.937V254.563L84.8109 239.099V223.47H80.0424V239.099L64.2042 254.563V267.355C61.6909 268.488 59.9467 270.97 59.9467 273.85C59.9467 277.799 63.2253 281 67.2697 281C71.3141 281 74.5927 277.799 74.5927 273.85ZM96.0509 244.753V222.805H100.819V246.415L89.4473 257.36C90.1777 258.472 90.6012 259.794 90.6012 261.214C90.6012 265.162 87.3226 268.363 83.2782 268.363C79.2338 268.363 75.9551 265.162 75.9551 261.214C75.9551 257.265 79.2338 254.064 83.2782 254.064C84.2819 254.064 85.2385 254.261 86.1095 254.618L96.0509 244.753ZM112.4 222.805V249.408L96.0509 264.705V267.435C93.6294 268.601 91.9636 271.036 91.9636 273.85C91.9636 277.799 95.2422 281 99.2866 281C103.331 281 106.61 277.799 106.61 273.85C106.61 270.474 104.213 267.644 100.99 266.895V264.705L116.828 249.408V222.805H112.4ZM128.408 253.731V222.805H133.177V253.846C135.962 254.858 137.945 257.477 137.945 260.549C137.945 264.497 134.667 267.698 130.622 267.698C126.578 267.698 123.299 264.497 123.299 260.549C123.299 257.353 125.446 254.648 128.408 253.731ZM144.417 222.805V267.033C141.455 267.949 139.308 270.655 139.308 273.85C139.308 277.799 142.587 281 146.631 281C150.675 281 153.954 277.799 153.954 273.85C153.954 270.779 151.97 268.16 149.185 267.148V222.805H144.417ZM160.425 254.396V222.805H165.194V254.511C167.979 255.523 169.962 258.142 169.962 261.214C169.962 265.162 166.684 268.363 162.639 268.363C158.595 268.363 155.316 265.162 155.316 261.214C155.316 258.018 157.463 255.313 160.425 254.396ZM176.434 222.805V250.905L192.442 266.202V267.033C189.48 267.949 187.333 270.655 187.333 273.85C187.333 277.799 190.612 281 194.656 281C198.701 281 201.979 277.799 201.979 273.85C201.979 270.655 199.833 267.949 196.87 267.033V264.373L181.202 249.076V222.805H176.434ZM192.442 220.809V246.582L203.911 257.779C203.545 258.631 203.342 259.567 203.342 260.549C203.342 264.497 206.62 267.698 210.665 267.698C214.709 267.698 217.988 264.497 217.988 260.549C217.988 256.6 214.709 253.399 210.665 253.399C209.294 253.399 208.012 253.766 206.915 254.406L196.87 244.753V220.809H192.442Z" fill="#5D8766"/>
<path fill-rule="evenodd" clip-rule="evenodd" d="M206.523 6.65562C206.523 9.22685 208.658 11.3112 211.291 11.3112C213.925 11.3112 216.06 9.22685 216.06 6.65562C216.06 4.08439 213.925 2 211.291 2C208.658 2 206.523 4.08439 206.523 6.65562ZM143.17 19.9574C143.17 22.5286 145.305 24.613 147.939 24.613C150.572 24.613 152.707 22.5286 152.707 19.9574C152.707 17.3862 150.572 15.3018 147.939 15.3018C145.305 15.3018 143.17 17.3862 143.17 19.9574ZM131.93 11.3112C129.297 11.3112 127.162 9.22685 127.162 6.65562C127.162 4.08439 129.297 2 131.93 2C134.564 2 136.699 4.08439 136.699 6.65562C136.699 9.22685 134.564 11.3112 131.93 11.3112ZM111.153 19.2923C111.153 21.8635 113.288 23.9479 115.922 23.9479C118.555 23.9479 120.69 21.8635 120.69 19.2923C120.69 16.7211 118.555 14.6367 115.922 14.6367C113.288 14.6367 111.153 16.7211 111.153 19.2923ZM67.8964 24.613C65.2628 24.613 63.1279 22.5286 63.1279 19.9574C63.1279 17.3862 65.2628 15.3018 67.8964 15.3018C70.53 15.3018 72.6649 17.3862 72.6649 19.9574C72.6649 22.5286 70.53 24.613 67.8964 24.613ZM79.1364 6.65562C79.1364 9.22685 81.2713 11.3112 83.9048 11.3112C86.5384 11.3112 88.6733 9.22685 88.6733 6.65562C88.6733 4.08439 86.5384 2 83.9048 2C81.2713 2 79.1364 4.08439 79.1364 6.65562ZM179.275 11.3112C176.641 11.3112 174.506 9.22685 174.506 6.65562C174.506 4.08439 176.641 2 179.275 2C181.908 2 184.043 4.08439 184.043 6.65562C184.043 9.22685 181.908 11.3112 179.275 11.3112ZM190.514 19.2923C190.514 21.8635 192.649 23.9479 195.283 23.9479C197.917 23.9479 200.051 21.8635 200.051 19.2923C200.051 16.7211 197.917 14.6367 195.283 14.6367C192.649 14.6367 190.514 16.7211 190.514 19.2923ZM268.513 209.84C268.513 207.269 270.648 205.185 273.282 205.185C275.915 205.185 278.05 207.269 278.05 209.84C278.05 212.411 275.915 214.496 273.282 214.496C270.648 214.496 268.513 212.411 268.513 209.84ZM254.889 147.987C254.889 145.416 257.024 143.331 259.657 143.331C262.291 143.331 264.426 145.416 264.426 147.987C264.426 150.558 262.291 152.643 259.657 152.643C257.024 152.643 254.889 150.558 254.889 147.987ZM273.282 127.702C270.648 127.702 268.513 129.786 268.513 132.357C268.513 134.929 270.648 137.013 273.282 137.013C275.915 137.013 278.05 134.929 278.05 132.357C278.05 129.786 275.915 127.702 273.282 127.702ZM255.57 116.728C255.57 114.157 257.705 112.072 260.339 112.072C262.972 112.072 265.107 114.157 265.107 116.728C265.107 119.299 262.972 121.383 260.339 121.383C257.705 121.383 255.57 119.299 255.57 116.728ZM259.657 65.1834C257.024 65.1834 254.889 67.2678 254.889 69.8391C254.889 72.4103 257.024 74.4947 259.657 74.4947C262.291 74.4947 264.426 72.4103 264.426 69.8391C264.426 67.2678 262.291 65.1834 259.657 65.1834ZM268.513 85.4686C268.513 82.8974 270.648 80.813 273.282 80.813C275.915 80.813 278.05 82.8974 278.05 85.4686C278.05 88.0399 275.915 90.1243 273.282 90.1243C270.648 90.1243 268.513 88.0399 268.513 85.4686ZM273.282 173.925C270.648 173.925 268.513 176.01 268.513 178.581C268.513 181.152 270.648 183.237 273.282 183.237C275.915 183.237 278.05 181.152 278.05 178.581C278.05 176.01 275.915 173.925 273.282 173.925ZM255.57 194.211C255.57 191.639 257.705 189.555 260.339 189.555C262.972 189.555 265.107 191.639 265.107 194.211C265.107 196.782 262.972 198.866 260.339 198.866C257.705 198.866 255.57 196.782 255.57 194.211ZM12.037 70.1716C12.037 72.7428 9.90205 74.8272 7.26848 74.8272C4.63492 74.8272 2.5 72.7428 2.5 70.1716C2.5 67.6004 4.63492 65.516 7.26848 65.516C9.90205 65.516 12.037 67.6004 12.037 70.1716ZM25.6612 132.025C25.6612 134.596 23.5263 136.68 20.8928 136.68C18.2592 136.68 16.1243 134.596 16.1243 132.025C16.1243 129.454 18.2592 127.369 20.8928 127.369C23.5263 127.369 25.6612 129.454 25.6612 132.025ZM7.26848 152.31C9.90205 152.31 12.037 150.226 12.037 147.654C12.037 145.083 9.90205 142.999 7.26848 142.999C4.63492 142.999 2.5 145.083 2.5 147.654C2.5 150.226 4.63492 152.31 7.26848 152.31ZM24.98 163.284C24.98 165.855 22.8451 167.94 20.2115 167.94C17.578 167.94 15.4431 165.855 15.4431 163.284C15.4431 160.713 17.578 158.628 20.2115 158.628C22.8451 158.628 24.98 160.713 24.98 163.284ZM20.8928 214.828C23.5263 214.828 25.6612 212.744 25.6612 210.173C25.6612 207.602 23.5263 205.517 20.8928 205.517C18.2592 205.517 16.1243 207.602 16.1243 210.173C16.1243 212.744 18.2592 214.828 20.8928 214.828ZM12.037 194.543C12.037 197.114 9.90205 199.199 7.26848 199.199C4.63492 199.199 2.5 197.114 2.5 194.543C2.5 191.972 4.63492 189.888 7.26848 189.888C9.90205 189.888 12.037 191.972 12.037 194.543ZM7.26848 106.086C9.90205 106.086 12.037 104.002 12.037 101.431C12.037 98.8595 9.90205 96.7751 7.26848 96.7751C4.63492 96.7751 2.5 98.8595 2.5 101.431C2.5 104.002 4.63492 106.086 7.26848 106.086ZM24.98 85.8012C24.98 88.3724 22.8451 90.4568 20.2115 90.4568C17.578 90.4568 15.4431 88.3724 15.4431 85.8012C15.4431 83.2299 17.578 81.1456 20.2115 81.1456C22.8451 81.1456 24.98 83.2299 24.98 85.8012ZM67.2685 269.302C69.902 269.302 72.037 271.386 72.037 273.957C72.037 276.529 69.902 278.613 67.2685 278.613C64.6349 278.613 62.5 276.529 62.5 273.957C62.5 271.386 64.6349 269.302 67.2685 269.302ZM130.621 256C133.255 256 135.39 258.084 135.39 260.656C135.39 263.227 133.255 265.311 130.621 265.311C127.988 265.311 125.853 263.227 125.853 260.656C125.853 258.084 127.988 256 130.621 256ZM151.398 273.957C151.398 271.386 149.263 269.302 146.63 269.302C143.996 269.302 141.861 271.386 141.861 273.957C141.861 276.529 143.996 278.613 146.63 278.613C149.263 278.613 151.398 276.529 151.398 273.957ZM162.638 256.665C165.272 256.665 167.407 258.749 167.407 261.321C167.407 263.892 165.272 265.976 162.638 265.976C160.005 265.976 157.87 263.892 157.87 261.321C157.87 258.749 160.005 256.665 162.638 256.665ZM215.432 260.656C215.432 258.084 213.297 256 210.664 256C208.03 256 205.895 258.084 205.895 260.656C205.895 263.227 208.03 265.311 210.664 265.311C213.297 265.311 215.432 263.227 215.432 260.656ZM194.655 269.302C197.289 269.302 199.424 271.386 199.424 273.957C199.424 276.529 197.289 278.613 194.655 278.613C192.022 278.613 189.887 276.529 189.887 273.957C189.887 271.386 192.022 269.302 194.655 269.302ZM104.054 273.957C104.054 271.386 101.919 269.302 99.2854 269.302C96.6519 269.302 94.5169 271.386 94.5169 273.957C94.5169 276.529 96.6519 278.613 99.2854 278.613C101.919 278.613 104.054 276.529 104.054 273.957ZM83.277 256.665C85.9105 256.665 88.0454 258.749 88.0454 261.321C88.0454 263.892 85.9105 265.976 83.277 265.976C80.6434 265.976 78.5085 263.892 78.5085 261.321C78.5085 258.749 80.6434 256.665 83.277 256.665Z" fill="#FFCA43"/>
<path fill-rule="evenodd" clip-rule="evenodd" d="M82.8643 225.933C80.6551 225.933 78.8643 224.142 78.8643 221.933V214.303C78.8643 212.094 80.6551 210.303 82.8643 210.303H84.0606C86.2698 210.303 88.0606 212.094 88.0606 214.303V221.933C88.0606 224.142 86.2698 225.933 84.0606 225.933H82.8643ZM94.8727 221.933C94.8727 224.142 96.6636 225.933 98.8727 225.933H100.069C102.278 225.933 104.069 224.142 104.069 221.933V214.303C104.069 212.094 102.278 210.303 100.069 210.303H98.8727C96.6636 210.303 94.8727 212.094 94.8727 214.303V221.933ZM114.881 225.933C112.672 225.933 110.881 224.142 110.881 221.933V214.303C110.881 212.094 112.672 210.303 114.881 210.303H116.078C118.287 210.303 120.078 212.094 120.078 214.303V221.933C120.078 224.142 118.287 225.933 116.078 225.933H114.881ZM126.89 221.933C126.89 224.142 128.681 225.933 130.89 225.933H132.086C134.295 225.933 136.086 224.142 136.086 221.933V214.303C136.086 212.094 134.295 210.303 132.086 210.303H130.89C128.681 210.303 126.89 212.094 126.89 214.303V221.933ZM146.898 225.933C144.689 225.933 142.898 224.142 142.898 221.933V214.303C142.898 212.094 144.689 210.303 146.898 210.303H148.095C150.304 210.303 152.095 212.094 152.095 214.303V221.933C152.095 224.142 150.304 225.933 148.095 225.933H146.898ZM158.907 221.933C158.907 224.142 160.698 225.933 162.907 225.933H164.103C166.312 225.933 168.103 224.142 168.103 221.933V214.303C168.103 212.094 166.312 210.303 164.103 210.303H162.907C160.698 210.303 158.907 212.094 158.907 214.303V221.933ZM178.915 225.933C176.706 225.933 174.915 224.142 174.915 221.933V214.303C174.915 212.094 176.706 210.303 178.915 210.303H180.112C182.321 210.303 184.112 212.094 184.112 214.303V221.933C184.112 224.142 182.321 225.933 180.112 225.933H178.915ZM194.924 225.933C192.714 225.933 190.924 224.142 190.924 221.933V214.303C190.924 212.094 192.714 210.303 194.924 210.303H196.12C198.329 210.303 200.12 212.094 200.12 214.303V221.933C200.12 224.142 198.329 225.933 196.12 225.933H194.924ZM83.5455 72.6296C81.3363 72.6296 79.5455 70.8387 79.5455 68.6296V61C79.5455 58.7909 81.3363 57 83.5455 57H84.7418C86.951 57 88.7418 58.7909 88.7418 61V68.6296C88.7418 70.8387 86.951 72.6296 84.7418 72.6296H83.5455ZM95.5539 68.6296C95.5539 70.8387 97.3448 72.6296 99.5539 72.6296H100.75C102.959 72.6296 104.75 70.8387 104.75 68.6296V61C104.75 58.7909 102.959 57 100.75 57H99.5539C97.3448 57 95.5539 58.7909 95.5539 61V68.6296ZM115.562 72.6296C113.353 72.6296 111.562 70.8387 111.562 68.6296V61C111.562 58.7909 113.353 57 115.562 57H116.759C118.968 57 120.759 58.7909 120.759 61V68.6296C120.759 70.8387 118.968 72.6296 116.759 72.6296H115.562ZM127.571 68.6296C127.571 70.8387 129.362 72.6296 131.571 72.6296H132.767C134.976 72.6296 136.767 70.8387 136.767 68.6296V61C136.767 58.7909 134.976 57 132.767 57H131.571C129.362 57 127.571 58.7909 127.571 61V68.6296ZM147.579 72.6296C145.37 72.6296 143.579 70.8387 143.579 68.6296V61C143.579 58.7909 145.37 57 147.579 57H148.776C150.985 57 152.776 58.7909 152.776 61V68.6296C152.776 70.8387 150.985 72.6296 148.776 72.6296H147.579ZM159.588 68.6296C159.588 70.8387 161.379 72.6296 163.588 72.6296H164.784C166.993 72.6296 168.784 70.8387 168.784 68.6296V61C168.784 58.7909 166.993 57 164.784 57H163.588C161.379 57 159.588 58.7909 159.588 61V68.6296ZM179.596 72.6296C177.387 72.6296 175.596 70.8387 175.596 68.6296V61C175.596 58.7909 177.387 57 179.596 57H180.793C183.002 57 184.793 58.7909 184.793 61V68.6296C184.793 70.8387 183.002 72.6296 180.793 72.6296H179.596ZM195.605 72.6296C193.396 72.6296 191.605 70.8387 191.605 68.6296V61C191.605 58.7909 193.396 57 195.605 57H196.801C199.01 57 200.801 58.7909 200.801 61V68.6296C200.801 70.8387 199.01 72.6296 196.801 72.6296H195.605ZM215.019 82.9385C212.81 82.9385 211.019 84.7293 211.019 86.9385V87.9172C211.019 90.1263 212.81 91.9172 215.019 91.9172H223.028C225.237 91.9172 227.028 90.1263 227.028 87.9172V86.9385C227.028 84.7293 225.237 82.9385 223.028 82.9385H215.019ZM211.019 102.568C211.019 100.359 212.81 98.5681 215.019 98.5681H223.028C225.237 98.5681 227.028 100.359 227.028 102.568V103.547C227.028 105.756 225.237 107.547 223.028 107.547H215.019C212.81 107.547 211.019 105.756 211.019 103.547V102.568ZM215.019 114.198C212.81 114.198 211.019 115.988 211.019 118.198V119.176C211.019 121.385 212.81 123.176 215.019 123.176H223.028C225.237 123.176 227.028 121.385 227.028 119.176V118.198C227.028 115.988 225.237 114.198 223.028 114.198H215.019ZM211.019 133.827C211.019 131.618 212.81 129.827 215.019 129.827H223.028C225.237 129.827 227.028 131.618 227.028 133.827V134.806C227.028 137.015 225.237 138.806 223.028 138.806H215.019C212.81 138.806 211.019 137.015 211.019 134.806V133.827ZM215.019 145.457C212.81 145.457 211.019 147.248 211.019 149.457V150.436C211.019 152.645 212.81 154.436 215.019 154.436H223.028C225.237 154.436 227.028 152.645 227.028 150.436V149.457C227.028 147.248 225.237 145.457 223.028 145.457H215.019ZM211.019 165.086C211.019 162.877 212.81 161.086 215.019 161.086H223.028C225.237 161.086 227.028 162.877 227.028 165.086V166.065C227.028 168.274 225.237 170.065 223.028 170.065H215.019C212.81 170.065 211.019 168.274 211.019 166.065V165.086ZM215.019 176.716C212.81 176.716 211.019 178.507 211.019 180.716V181.695C211.019 183.904 212.81 185.695 215.019 185.695H223.028C225.237 185.695 227.028 183.904 227.028 181.695V180.716C227.028 178.507 225.237 176.716 223.028 176.716H215.019ZM215.019 192.346C212.81 192.346 211.019 194.136 211.019 196.346V197.324C211.019 199.533 212.81 201.324 215.019 201.324H223.028C225.237 201.324 227.028 199.533 227.028 197.324V196.346C227.028 194.136 225.237 192.346 223.028 192.346H215.019ZM54 86.2734C54 84.0642 55.7909 82.2734 58 82.2734H66.0085C68.2176 82.2734 70.0085 84.0642 70.0085 86.2734V87.2521C70.0085 89.4612 68.2176 91.2521 66.0085 91.2521H58C55.7909 91.2521 54 89.4612 54 87.2521V86.2734ZM58 97.903C55.7909 97.903 54 99.6938 54 101.903V102.882C54 105.091 55.7909 106.882 58 106.882H66.0085C68.2176 106.882 70.0085 105.091 70.0085 102.882V101.903C70.0085 99.6938 68.2176 97.903 66.0085 97.903H58ZM54 117.533C54 115.323 55.7909 113.533 58 113.533H66.0085C68.2176 113.533 70.0085 115.323 70.0085 117.533V118.511C70.0085 120.72 68.2176 122.511 66.0085 122.511H58C55.7909 122.511 54 120.72 54 118.511V117.533ZM58 129.162C55.7909 129.162 54 130.953 54 133.162V134.141C54 136.35 55.7909 138.141 58 138.141H66.0085C68.2176 138.141 70.0085 136.35 70.0085 134.141V133.162C70.0085 130.953 68.2176 129.162 66.0085 129.162H58ZM54 148.792C54 146.583 55.7909 144.792 58 144.792H66.0085C68.2176 144.792 70.0085 146.583 70.0085 148.792V149.77C70.0085 151.98 68.2176 153.77 66.0085 153.77H58C55.7909 153.77 54 151.98 54 149.77V148.792ZM58 160.421C55.7909 160.421 54 162.212 54 164.421V165.4C54 167.609 55.7909 169.4 58 169.4H66.0085C68.2176 169.4 70.0085 167.609 70.0085 165.4V164.421C70.0085 162.212 68.2176 160.421 66.0085 160.421H58ZM54 180.051C54 177.842 55.7909 176.051 58 176.051H66.0085C68.2176 176.051 70.0085 177.842 70.0085 180.051V181.03C70.0085 183.239 68.2176 185.03 66.0085 185.03H58C55.7909 185.03 54 183.239 54 181.03V180.051ZM54 195.68C54 193.471 55.7909 191.68 58 191.68H66.0085C68.2176 191.68 70.0085 193.471 70.0085 195.68V196.659C70.0085 198.868 68.2176 200.659 66.0085 200.659H58C55.7909 200.659 54 198.868 54 196.659V195.68Z" fill="#FFE6CE"/>
<rect x="67" y="69" width="148" height="144" rx="15" fill="#6D6D6D"/>
<ellipse cx="90.5" cy="93" rx="9.5" ry="9" fill="#535353"/>
</svg>
