<svg width="425" height="232" viewBox="0 0 425 232" fill="none" xmlns="http://www.w3.org/2000/svg">
<path d="M39 39C39 31.8203 44.8203 26 52 26H389.196C392.654 26 395.969 27.3772 398.408 29.8271L421.212 52.7277C423.638 55.164 425 58.4623 425 61.9006V167.042C425 170.652 423.499 174.099 420.857 176.558L398.34 197.516C395.935 199.755 392.77 201 389.483 201H52C44.8203 201 39 195.18 39 188V39Z" fill="#484848"/>
<path d="M48 48C48 40.8203 53.8203 35 61 35H384.157C387.873 35 391.412 36.5903 393.879 39.3692L410.722 58.3404C412.834 60.7193 414 63.79 414 66.9712V162.25C414 165.657 412.662 168.928 410.274 171.359L393.821 188.11C391.377 190.598 388.035 192 384.547 192H61C53.8203 192 48 186.18 48 179V48Z" fill="#6A6A6A"/>
<ellipse cx="309" cy="111" rx="19" ry="20" fill="black"/>
<circle cx="149" cy="113" r="66.5" fill="black"/>
<circle cx="149" cy="113" r="66.5" fill="black"/>
<circle cx="149" cy="113" r="66.5" stroke="#383838" stroke-width="3"/>
<circle cx="309" cy="113" r="66.5" fill="black"/>
<circle cx="309" cy="113" r="66.5" fill="black"/>
<circle cx="309" cy="113" r="66.5" stroke="#383838" stroke-width="3"/>
<path fill-rule="evenodd" clip-rule="evenodd" d="M364.408 120.486L365.518 119.606L366.974 118.376C367.246 118.147 367.475 117.871 367.65 117.561L368.489 116.079L369.315 114.618C369.498 114.295 369.619 113.941 369.673 113.574L369.931 111.807L370.235 109.726C370.258 109.566 370.269 109.403 370.266 109.241L370.224 106.784L369.759 101.773L369.332 97.4661C369.311 97.2553 369.268 97.0473 369.204 96.8456L367.7 92.159L365.569 87.6626C365.418 87.345 365.213 87.0563 364.963 86.8098L364.068 85.9299C363.642 85.5106 363.1 85.2283 362.512 85.1193L362.19 85.0595C361.745 84.9771 361.287 84.9963 360.851 85.1157L360.696 85.1581C360.242 85.2824 359.824 85.5117 359.474 85.8275L357.572 87.5485C357.453 87.6559 357.343 87.7725 357.243 87.8974L353.313 92.8009L349.213 96.7342L345.343 99.7085C345.181 99.8329 345.006 99.9405 344.823 100.03L340.966 101.899L336.826 103.517L331.549 105.155L328.542 105.824C327.036 106.159 326.028 107.582 326.213 109.113L326.732 113.417C326.758 113.627 326.761 113.839 326.741 114.05L326.321 118.631L326.318 118.664C326.242 119.615 325.763 120.807 325.163 121.549L322.488 124.856C322.352 125.024 322.199 125.177 322.031 125.311L318.519 128.123C317.951 128.577 315.542 129.428 314.815 129.435C314.745 129.436 314.674 129.439 314.603 129.445L310.458 129.778C310.239 129.796 310.019 129.789 309.801 129.759L305.425 129.145C304.169 128.968 302.94 129.6 302.352 130.722L300.725 133.831C300.604 134.064 300.513 134.312 300.456 134.568L299.257 139.939L298.74 145.331L298.591 151.119L298.831 156.531L299.426 160.865C299.455 161.075 299.506 161.282 299.578 161.481L300.885 165.08L301.445 166.954C301.536 167.26 301.676 167.549 301.858 167.811L302.679 168.989L303.822 170.525C304.035 170.812 304.298 171.058 304.598 171.253L306.008 172.167L307.387 173.06C307.707 173.268 308.064 173.413 308.439 173.487L310.134 173.821L312.148 174.219C312.313 174.251 312.481 174.27 312.649 174.275L315.047 174.339L319.98 174.084L324.205 173.839C324.424 173.826 324.641 173.789 324.852 173.729L329.498 172.407L333.987 170.44C334.313 170.297 334.611 170.097 334.867 169.85L335.777 168.969C336.199 168.562 336.491 168.04 336.619 167.468L336.707 167.072C336.802 166.646 336.803 166.205 336.71 165.779L336.662 165.557C336.564 165.107 336.363 164.685 336.076 164.324L334.46 162.299C334.36 162.174 334.25 162.057 334.132 161.949L329.496 157.735L325.818 153.39L323.066 149.315C322.954 149.148 322.858 148.971 322.782 148.786L321.113 144.77L319.707 140.485L318.331 135.043L317.939 132.735L318.592 134.79C318.674 135.046 318.788 135.29 318.933 135.515L321.887 140.117L325.334 144.242L329.317 148.371L333.305 151.955L336.772 154.525C336.945 154.653 337.13 154.761 337.326 154.849L340.768 156.388L342.472 157.275C342.756 157.423 343.062 157.524 343.378 157.573L344.774 157.789L346.652 158.018C347.003 158.061 347.358 158.04 347.702 157.956L349.33 157.556L350.929 157.164C351.291 157.075 351.634 156.917 351.94 156.699L353.364 155.681L355.05 154.477C355.184 154.382 355.31 154.275 355.427 154.158L357.142 152.44L360.39 148.647L363.157 145.374C363.296 145.209 363.418 145.029 363.519 144.838L365.817 140.508L367.549 135.844C367.673 135.51 367.738 135.156 367.741 134.799L367.752 133.526C367.757 132.928 367.588 132.343 367.267 131.843L367.068 131.532C366.827 131.157 366.508 130.841 366.133 130.607L365.968 130.505C365.575 130.26 365.131 130.111 364.671 130.071L362.127 129.849C361.969 129.835 361.811 129.834 361.653 129.846L355.457 130.317L349.834 129.994L345.049 129.18C344.851 129.147 344.657 129.093 344.47 129.019L340.48 127.454L336.478 125.508C335.847 125.143 336.204 124.175 336.921 124.308L337.183 124.357L342.492 124.648L348.174 124.547L353.47 124.067L357.678 123.275C357.893 123.235 358.104 123.171 358.305 123.085L361.763 121.603L363.56 120.958C363.866 120.847 364.153 120.688 364.408 120.486ZM352.985 78.9985L353.172 77.5728L353.365 75.6555C353.401 75.2975 353.374 74.9358 353.285 74.5875L352.865 72.9356L352.452 71.3133C352.358 70.9457 352.198 70.5993 351.978 70.2923L350.955 68.8585L349.743 67.1625C349.647 67.0277 349.54 66.9012 349.423 66.7844L347.707 65.0662L343.929 61.8245L340.668 59.0625C340.504 58.9235 340.326 58.8029 340.136 58.7028L335.847 56.4376L331.24 54.7546C330.91 54.6341 330.561 54.574 330.211 54.5771L328.962 54.5882C328.375 54.5935 327.803 54.7756 327.318 55.1116L327.017 55.3194C326.653 55.5715 326.349 55.9028 326.125 56.2894L326.028 56.4576C325.794 56.8629 325.656 57.3182 325.625 57.7872L325.451 60.3822C325.44 60.5433 325.442 60.705 325.457 60.8658L326.027 67.1695L325.808 72.9032L325.093 77.792C325.064 77.994 325.014 78.1925 324.945 78.3844L323.479 82.4768L321.639 86.5872L319.002 91.5236L317.313 94.1548C316.473 95.4637 316.749 97.2089 317.95 98.182L321.244 100.85C321.411 100.986 321.563 101.139 321.698 101.308L324.52 104.838C325.306 105.821 326.61 106.201 327.788 105.789L331.06 104.646C331.31 104.558 331.547 104.437 331.766 104.286L336.23 101.196L340.218 97.6125L344.2 93.483L347.648 89.3583L350.109 85.7817C350.232 85.6035 350.335 85.4123 350.418 85.2115L351.868 81.6785L352.709 79.9271C352.849 79.6347 352.942 79.3211 352.985 78.9985ZM314.672 56.3209L315.513 57.4845C315.7 57.7431 315.844 58.0298 315.941 58.334L316.533 60.1974L317.901 63.7724C317.977 63.9706 318.031 64.1762 318.064 64.3859L318.733 68.7088L319.066 74.1157L319.016 79.9052L318.591 85.3053L317.484 90.6969C317.432 90.9543 317.345 91.2036 317.227 91.4385L315.654 94.576C315.086 95.7087 313.867 96.362 312.609 96.2082L308.223 95.6722C308.005 95.6455 307.784 95.6429 307.566 95.6644L303.427 96.0711C301.879 96.2232 300.471 95.1664 300.184 93.6371L299.604 90.5404L298.135 85.1234L296.656 80.8643L294.919 76.8783C294.838 76.6945 294.74 76.5192 294.625 76.355L291.804 72.3293L288.052 68.05L283.345 63.9192C283.224 63.8137 283.113 63.6987 283.011 63.5753L281.36 61.5787C281.067 61.2235 280.859 60.8054 280.753 60.3569L280.701 60.1359C280.6 59.7114 280.594 59.2701 280.682 58.8428L280.763 58.4455C280.881 57.8711 281.165 57.3439 281.579 56.9291L282.474 56.0329C282.726 55.781 283.02 55.5759 283.344 55.4272L287.799 53.38L292.421 51.9758C292.631 51.9121 292.847 51.8716 293.066 51.8549L297.286 51.5344L302.214 51.1922L304.613 51.2135C304.781 51.215 304.949 51.2307 305.114 51.2603L307.135 51.622L308.836 51.9264C309.212 51.9936 309.571 52.1319 309.895 52.3338L311.289 53.2029L312.714 54.0917C313.018 54.2808 313.285 54.5226 313.503 54.8056L314.672 56.3209ZM274.188 69.2311L272.788 69.0401L270.907 68.844C270.555 68.8074 270.2 68.8349 269.858 68.9252L268.237 69.3535L266.645 69.7741C266.284 69.8694 265.944 70.0332 265.642 70.2568L264.236 71.2997L262.571 72.5334C262.439 72.6316 262.314 72.7407 262.2 72.8598L260.513 74.608L257.332 78.4575L254.621 81.7798C254.485 81.9472 254.366 82.1291 254.268 82.3223L252.045 86.6927L250.393 91.3863C250.275 91.7226 250.216 92.0776 250.219 92.4348L250.23 93.7074C250.235 94.305 250.413 94.8877 250.743 95.382L250.948 95.689C251.195 96.0597 251.52 96.3698 251.899 96.597L252.065 96.6965C252.462 96.9348 252.909 97.0754 253.369 97.1074L255.916 97.2843C256.074 97.2952 256.233 97.2933 256.391 97.2785L262.578 96.6977L268.205 96.9207L273.004 97.6489C273.202 97.679 273.397 97.7294 273.585 97.7994L277.602 99.2936L281.636 101.168C281.75 101.232 281.686 101.406 281.558 101.38L281.337 101.335L276.034 100.949H270.351L265.047 101.335L260.826 102.052C260.61 102.089 260.399 102.149 260.196 102.232L256.713 103.651L254.906 104.265C254.597 104.37 254.308 104.524 254.049 104.722L252.925 105.581L251.447 106.785C251.172 107.01 250.938 107.282 250.758 107.588L249.894 109.055L249.043 110.501C248.854 110.821 248.727 111.173 248.667 111.539L248.379 113.301L248.039 115.376C248.013 115.536 248 115.698 248 115.86V118.318L248.379 123.336L248.732 127.65C248.749 127.861 248.789 128.07 248.85 128.273L250.273 132.986L252.327 137.519C252.472 137.839 252.672 138.132 252.918 138.383L253.797 139.278C254.216 139.705 254.753 139.997 255.339 140.116L255.661 140.182C256.104 140.272 256.562 140.261 257 140.149L257.156 140.11C257.612 139.994 258.034 139.772 258.389 139.462L260.32 137.775C260.441 137.67 260.553 137.555 260.655 137.432L264.669 132.6L268.836 128.74L272.756 125.835C272.92 125.713 273.096 125.609 273.282 125.523L277.17 123.722L281.337 122.178L286.641 120.634L289.659 120.019C291.171 119.711 292.202 118.306 292.044 116.771L291.598 112.46C291.577 112.249 291.577 112.037 291.6 111.826L292.099 107.253L292.103 107.217C292.18 106.417 292.522 105.559 293.017 104.926L295.635 101.571C295.768 101.401 295.919 101.246 296.085 101.108L299.548 98.2343C300.513 97.433 300.887 96.1034 300.483 94.9034L299.36 91.5694C299.274 91.3149 299.156 91.0732 299.007 90.8507L295.974 86.3021L292.457 82.2392L288.404 78.1812L284.356 74.669L280.845 72.161C280.67 72.0361 280.483 71.9308 280.286 71.8469L276.818 70.369L275.099 69.5122C274.812 69.3692 274.504 69.2743 274.188 69.2311ZM264.76 146.406L264.549 147.828L264.323 149.741C264.281 150.099 264.302 150.461 264.385 150.811L264.777 152.47L265.162 154.099C265.249 154.468 265.404 154.818 265.618 155.128L266.617 156.58L267.798 158.298C267.892 158.434 267.997 158.562 268.112 158.681L269.798 160.43L273.52 163.738L276.734 166.558C276.895 166.7 277.072 166.823 277.259 166.927L281.51 169.268L286.087 171.032C286.415 171.159 286.762 171.225 287.113 171.228L288.361 171.239C288.948 171.245 289.523 171.073 290.014 170.745L290.318 170.543C290.687 170.297 290.997 169.972 291.227 169.589L291.327 169.422C291.568 169.021 291.714 168.569 291.753 168.1L291.971 165.509C291.985 165.348 291.985 165.186 291.974 165.025L291.512 158.712L291.829 152.983L292.627 148.108C292.66 147.906 292.713 147.709 292.785 147.518L294.321 143.453L296.231 139.375L298.952 134.487L300.686 131.886C301.549 130.592 301.303 128.842 300.119 127.848L296.871 125.121C296.706 124.983 296.557 124.827 296.425 124.656L293.664 121.076C292.895 120.079 291.597 119.676 290.413 120.067L287.121 121.152C286.87 121.235 286.63 121.352 286.409 121.499L281.893 124.509L277.845 128.021L273.792 132.08L270.274 136.142L267.752 139.675C267.626 139.851 267.52 140.04 267.434 140.239L265.923 143.746L265.052 145.482C264.907 145.772 264.808 146.084 264.76 146.406ZM204.03 120.53L205.14 119.651L206.596 118.421C206.868 118.191 207.097 117.915 207.272 117.606L208.11 116.124L208.937 114.663C209.12 114.34 209.241 113.986 209.295 113.619L209.553 111.852L209.857 109.771C209.88 109.61 209.89 109.448 209.888 109.286L209.846 106.828L209.381 101.818L208.954 97.511C208.933 97.3001 208.89 97.0921 208.825 96.8904L207.322 92.2038L205.191 87.7074C205.04 87.3898 204.835 87.1011 204.584 86.8546L203.69 85.9747C203.264 85.5554 202.722 85.2731 202.134 85.1641L201.811 85.1043C201.367 85.0219 200.909 85.0411 200.473 85.1605L200.318 85.2029C199.864 85.3272 199.445 85.5565 199.096 85.8723L197.194 87.5934C197.075 87.7007 196.965 87.8173 196.865 87.9422L192.935 92.8457L188.834 96.779L184.964 99.7533C184.802 99.8777 184.628 99.9853 184.444 100.074L180.587 101.944L176.447 103.562L171.171 105.2L168.164 105.868C166.658 106.203 165.65 107.626 165.835 109.158L166.354 113.462C166.38 113.672 166.383 113.884 166.363 114.095L165.943 118.676L165.94 118.709C165.864 119.659 165.385 120.852 164.785 121.593L162.11 124.901C161.974 125.069 161.821 125.222 161.652 125.356L158.141 128.168C157.573 128.622 155.164 129.473 154.437 129.48C154.367 129.481 154.296 129.484 154.225 129.49L150.08 129.823C149.861 129.84 149.64 129.834 149.423 129.803L145.046 129.189C143.791 129.013 142.562 129.645 141.974 130.767L140.347 133.876C140.225 134.109 140.135 134.357 140.078 134.613L138.879 139.984L138.361 145.376L138.213 151.164L138.452 156.576L139.047 160.91C139.076 161.12 139.127 161.327 139.2 161.526L140.507 165.125L141.066 166.999C141.158 167.304 141.297 167.594 141.48 167.856L142.301 169.034L143.443 170.57C143.657 170.857 143.92 171.103 144.22 171.298L145.63 172.212L147.009 173.105C147.329 173.313 147.686 173.458 148.06 173.532L149.756 173.866L151.77 174.264C151.935 174.296 152.103 174.315 152.271 174.319L154.669 174.383L159.602 174.129L163.827 173.883C164.046 173.871 164.263 173.834 164.474 173.774L169.119 172.452L173.609 170.485C173.935 170.342 174.233 170.142 174.489 169.894L175.399 169.014C175.82 168.607 176.113 168.085 176.241 167.513L176.329 167.117C176.424 166.691 176.425 166.25 176.332 165.824L176.284 165.602C176.185 165.151 175.985 164.73 175.697 164.369L174.081 162.344C173.982 162.218 173.872 162.101 173.754 161.994L169.117 157.78L165.439 153.435L162.688 149.359C162.576 149.193 162.48 149.016 162.403 148.831L160.735 144.815L159.329 140.53L157.953 135.088L157.561 132.779L158.214 134.835C158.295 135.091 158.41 135.335 158.554 135.56L161.509 140.162L164.956 144.286L168.939 148.416L172.927 152L176.394 154.57C176.566 154.698 176.752 154.806 176.947 154.894L180.389 156.433L182.094 157.32C182.378 157.468 182.684 157.569 183 157.617L184.396 157.833L186.274 158.063C186.625 158.106 186.98 158.085 187.323 158L188.952 157.601L190.551 157.209C190.913 157.12 191.256 156.962 191.561 156.744L192.986 155.726L194.671 154.522C194.805 154.426 194.931 154.32 195.048 154.203L196.764 152.485L200.011 148.692L202.778 145.419C202.918 145.254 203.039 145.074 203.141 144.882L205.439 140.552L207.171 135.889C207.295 135.555 207.36 135.201 207.363 134.844L207.374 133.571C207.379 132.973 207.21 132.388 206.889 131.887L206.69 131.577C206.449 131.202 206.13 130.886 205.754 130.652L205.59 130.55C205.197 130.304 204.753 130.156 204.293 130.116L201.749 129.894C201.591 129.88 201.433 129.879 201.274 129.891L195.078 130.361L189.456 130.039L184.671 129.225C184.473 129.191 184.279 129.138 184.092 129.064L180.101 127.499L176.1 125.553C175.469 125.188 175.826 124.22 176.543 124.353L176.804 124.402L182.114 124.693L187.795 124.592L193.092 124.112L197.3 123.32C197.515 123.28 197.725 123.216 197.927 123.13L201.385 121.648L203.181 121.002C203.488 120.892 203.775 120.733 204.03 120.53ZM192.607 79.0433L192.794 77.6176L192.986 75.7003C193.022 75.3423 192.995 74.9806 192.907 74.6323L192.486 72.9804L192.074 71.3581C191.98 70.9905 191.819 70.6442 191.6 70.3371L190.576 68.9033L189.365 67.2073C189.269 67.0725 189.162 66.946 189.045 66.8292L187.329 65.111L183.551 61.8693L180.29 59.1073C180.126 58.9683 179.948 58.8477 179.758 58.7477L175.468 56.4824L170.861 54.7995C170.531 54.6789 170.183 54.6188 169.833 54.622L168.584 54.6331C167.997 54.6383 167.425 54.8204 166.939 55.1564L166.639 55.3642C166.275 55.6163 165.97 55.9476 165.747 56.3342L165.65 56.5024C165.416 56.9077 165.278 57.363 165.246 57.8321L165.073 60.427C165.062 60.5881 165.064 60.7499 165.079 60.9107L165.649 67.2144L165.43 72.948L164.715 77.8368C164.685 78.0388 164.636 78.2373 164.567 78.4292L163.101 82.5216L161.261 86.632L158.624 91.5684L156.935 94.1997C156.095 95.5085 156.371 97.2537 157.572 98.2268L160.865 100.895C161.033 101.031 161.185 101.184 161.32 101.353L164.141 104.883C164.927 105.866 166.232 106.246 167.409 105.834L170.682 104.691C170.932 104.603 171.169 104.482 171.388 104.331L175.852 101.241L179.839 97.6573L183.822 93.5278L187.269 89.4031L189.731 85.8265C189.853 85.6483 189.957 85.4572 190.039 85.2564L191.49 81.7233L192.331 79.9719C192.471 79.6795 192.564 79.3659 192.607 79.0433ZM154.294 56.3657L155.135 57.5293C155.322 57.7879 155.466 58.0747 155.563 58.3788L156.155 60.2422L157.523 63.8172C157.599 64.0154 157.653 64.2211 157.686 64.4308L158.355 68.7537L158.687 74.1605L158.638 79.95L158.213 85.3501L157.106 90.7417C157.053 90.9991 156.967 91.2485 156.849 91.4833L155.276 94.6208C154.708 95.7535 153.489 96.4068 152.231 96.2531L147.845 95.717C147.627 95.6903 147.406 95.6877 147.187 95.7092L143.049 96.1159C141.5 96.268 140.092 95.2112 139.806 93.6819L139.225 90.5852L137.756 85.1682L136.278 80.9092L134.54 76.9231C134.46 76.7393 134.362 76.564 134.247 76.3998L131.426 72.3742L127.674 68.0949L122.966 63.964C122.846 63.8585 122.734 63.7435 122.632 63.6202L120.982 61.6235C120.689 61.2683 120.481 60.8502 120.375 60.4017L120.322 60.1807C120.222 59.7562 120.216 59.3149 120.303 58.8877L120.385 58.4903C120.503 57.9159 120.786 57.3887 121.201 56.9739L122.096 56.0777C122.347 55.8258 122.642 55.6207 122.965 55.472L127.421 53.4248L132.043 52.0207C132.253 51.9569 132.469 51.9164 132.687 51.8998L136.908 51.5792L141.836 51.237L144.234 51.2584C144.403 51.2599 144.571 51.2755 144.736 51.3052L146.757 51.6668L148.458 51.9712C148.833 52.0384 149.193 52.1767 149.517 52.3787L150.911 53.2477L152.336 54.1365C152.639 54.3256 152.907 54.5674 153.125 54.8504L154.294 56.3657ZM113.81 69.276L112.41 69.0849L110.528 68.8888C110.177 68.8522 109.822 68.8797 109.48 68.97L107.859 69.3983L106.267 69.8189C105.906 69.9143 105.566 70.078 105.264 70.3016L103.857 71.3445L102.193 72.5783C102.06 72.6764 101.936 72.7856 101.821 72.9046L100.135 74.6529L96.9536 78.5023L94.2429 81.8246C94.1063 81.992 93.9879 82.1739 93.8896 82.3672L91.6664 86.7375L90.0147 91.4311C89.8963 91.7675 89.8373 92.1224 89.8404 92.4797L89.8513 93.7522C89.8564 94.3499 90.035 94.9326 90.3646 95.4269L90.5693 95.7338C90.8164 96.1045 91.1413 96.4146 91.5204 96.6418L91.6865 96.7413C92.084 96.9796 92.5305 97.1203 92.9907 97.1522L95.538 97.3291C95.6961 97.3401 95.8548 97.3381 96.0127 97.3233L102.2 96.7426L107.827 96.9655L112.625 97.6937C112.824 97.7238 113.018 97.7743 113.207 97.8443L117.223 99.3384L121.258 101.213C121.372 101.276 121.308 101.451 121.179 101.425L120.959 101.38L115.655 100.994H109.973L104.669 101.38L100.448 102.097C100.232 102.134 100.021 102.194 99.8181 102.276L96.3349 103.696L94.5278 104.31C94.2192 104.414 93.9299 104.569 93.671 104.767L92.5466 105.626L91.0692 106.83C90.7935 107.055 90.56 107.327 90.3796 107.633L89.5159 109.1L88.6644 110.546C88.476 110.865 88.3487 111.217 88.2888 111.584L88.0006 113.345L87.6611 115.421C87.6349 115.581 87.6218 115.743 87.6218 115.905V118.363L88.0006 123.381L88.3534 127.695C88.3707 127.906 88.4103 128.115 88.4716 128.318L89.8948 133.03L91.9484 137.564C92.0935 137.884 92.2938 138.176 92.5401 138.427L93.4191 139.323C93.838 139.75 94.375 140.042 94.9611 140.161L95.2826 140.227C95.7258 140.317 96.1838 140.306 96.6221 140.194L96.7777 140.155C97.2338 140.038 97.6561 139.817 98.0106 139.507L99.9422 137.82C100.063 137.715 100.175 137.6 100.277 137.477L104.29 132.644L108.458 128.785L112.378 125.88C112.542 125.758 112.718 125.654 112.903 125.568L116.792 123.767L120.959 122.223L126.263 120.679L129.281 120.064C130.793 119.756 131.824 118.351 131.666 116.816L131.22 112.504C131.198 112.294 131.199 112.081 131.222 111.871L131.721 107.298L131.724 107.262C131.802 106.462 132.144 105.604 132.639 104.971L135.257 101.616C135.39 101.446 135.541 101.29 135.706 101.153L139.169 98.2792C140.135 97.4778 140.508 96.1482 140.104 94.9482L138.982 91.6142C138.896 91.3598 138.777 91.1181 138.629 90.8955L135.596 86.3469L132.079 82.2841L128.026 78.226L123.977 74.7138L120.467 72.2058C120.292 72.0809 120.105 71.9756 119.908 71.8917L116.44 70.4138L114.721 69.557C114.434 69.4141 114.126 69.3192 113.81 69.276ZM104.382 146.45L104.17 147.873L103.945 149.786C103.903 150.144 103.924 150.506 104.006 150.855L104.398 152.515L104.783 154.144C104.871 154.513 105.025 154.862 105.239 155.173L106.238 156.625L107.42 158.342C107.514 158.479 107.619 158.607 107.734 158.726L109.42 160.474L113.142 163.783L116.355 166.602C116.517 166.744 116.693 166.868 116.881 166.972L121.131 169.313L125.709 171.077C126.037 171.204 126.384 171.27 126.734 171.273L127.983 171.284C128.57 171.289 129.145 171.117 129.636 170.79L129.94 170.588C130.308 170.342 130.619 170.016 130.849 169.634L130.949 169.467C131.189 169.066 131.335 168.613 131.375 168.145L131.593 165.554C131.606 165.393 131.607 165.231 131.595 165.07L131.133 158.757L131.45 153.028L132.249 148.153C132.282 147.951 132.335 147.754 132.407 147.563L133.943 143.497L135.853 139.42L138.574 134.532L140.308 131.931C141.171 130.637 140.925 128.887 139.74 127.893L136.493 125.166C136.328 125.028 136.178 124.872 136.046 124.701L133.286 121.121C132.517 120.124 131.219 119.721 130.034 120.112L126.743 121.197C126.492 121.28 126.252 121.397 126.031 121.544L121.515 124.554L117.466 128.066L113.413 132.124L109.896 136.187L107.374 139.719C107.248 139.895 107.141 140.085 107.055 140.284L105.545 143.791L104.674 145.527C104.529 145.817 104.43 146.129 104.382 146.45Z" fill="#707070"/>
<circle cx="149" cy="113" r="20" fill="black"/>
<circle cx="309" cy="111" r="20" fill="black"/>
<path fill-rule="evenodd" clip-rule="evenodd" d="M309 126.357C317.837 126.357 325 119.402 325 110.821C325 102.241 317.837 95.2857 309 95.2857C300.163 95.2857 293 102.241 293 110.821C293 119.402 300.163 126.357 309 126.357ZM149 128.429C157.837 128.429 165 121.473 165 112.893C165 104.313 157.837 97.3571 149 97.3571C140.163 97.3571 133 104.313 133 112.893C133 121.473 140.163 128.429 149 128.429Z" fill="#9A9A9A"/>
<path d="M24.6552 0H25C29.4183 0 33 3.58172 33 8V222.828C33 225.132 31.1319 227 28.8276 227C26.5232 227 24.6552 225.132 24.6552 222.828V15.4917C24.6552 11.0735 21.0735 7.49175 16.6552 7.49175H3.74588C1.67709 7.49175 0 5.81466 0 3.74587C0 1.67709 1.67708 0 3.74587 0H24.6552Z" fill="#DC9E00"/>
<path d="M91 209C91 207.343 92.3431 206 94 206H252.622C253.134 206 253.55 206.416 253.55 206.929C253.55 207.441 253.134 207.857 252.622 207.857H250.379C250.188 207.857 249.997 207.875 249.81 207.912L248.823 208.102C248.393 208.185 247.987 208.362 247.632 208.619L247.21 208.925C246.831 209.2 246.521 209.559 246.306 209.975L246.078 210.417C245.936 210.69 245.838 210.983 245.786 211.285L245.568 212.547C245.51 212.885 245.51 213.23 245.568 213.567L245.808 214.957C245.846 215.175 245.907 215.389 245.992 215.594L246.245 216.204C246.497 216.813 246.942 217.322 247.512 217.652L248.22 218.063C248.442 218.192 248.68 218.292 248.927 218.36L250.853 218.892C251.113 218.964 251.381 219 251.651 219H264C265.657 219 267 220.343 267 222V224.571V226.029C267 227.685 265.657 229.029 264 229.029H243.485C241.828 229.029 240.485 227.685 240.485 226.029V225.56C240.485 224.919 240.271 224.297 239.879 223.79L239.695 223.554C239.459 223.249 239.135 223.022 238.768 222.904C238.385 222.781 237.973 222.781 237.59 222.904C237.223 223.022 236.9 223.249 236.663 223.554L236.479 223.79C236.087 224.297 235.873 224.919 235.873 225.56V229C235.873 230.657 234.53 232 232.873 232H142.803C141.147 232 139.803 230.657 139.803 229V226.877C139.803 225.604 138.771 224.571 137.498 224.571C136.224 224.571 135.192 225.604 135.192 226.877V229C135.192 230.657 133.849 232 132.192 232H117.057C115.4 232 114.057 230.657 114.057 229V224.571V216.387C114.057 215.907 113.942 215.435 113.721 215.009L113.656 214.882C113.415 214.416 113.056 214.022 112.616 213.738L112.135 213.429L110.903 212.833C110.701 212.735 110.487 212.66 110.268 212.61L110.031 212.556C109.644 212.467 109.244 212.456 108.853 212.523L108.511 212.582C108.113 212.65 107.733 212.798 107.394 213.017L106.755 213.429L106.275 213.738C105.834 214.022 105.476 214.416 105.235 214.882L105.169 215.009C104.949 215.435 104.834 215.907 104.834 216.387V223.429C104.834 225.085 103.491 226.429 101.834 226.429H94C92.3431 226.429 91 225.085 91 223.429V209Z" fill="#476248"/>
<path fill-rule="evenodd" clip-rule="evenodd" d="M115.385 222.523C115.385 221.97 115.832 221.523 116.385 221.523H116.648C117.201 221.523 117.648 221.97 117.648 222.523V229.503C117.648 230.056 117.201 230.503 116.648 230.503H116.385C115.832 230.503 115.385 230.056 115.385 229.503V222.523ZM118.403 222.523C118.403 221.97 118.851 221.523 119.403 221.523H119.667C120.219 221.523 120.667 221.97 120.667 222.523V229.503C120.667 230.056 120.219 230.503 119.667 230.503H119.403C118.851 230.503 118.403 230.056 118.403 229.503V222.523ZM123.685 222.523C123.685 221.97 123.238 221.523 122.685 221.523H122.422C121.869 221.523 121.422 221.97 121.422 222.523V229.503C121.422 230.056 121.869 230.503 122.422 230.503H122.685C123.238 230.503 123.685 230.056 123.685 229.503V222.523ZM127.459 222.523C127.459 221.97 127.906 221.523 128.459 221.523H128.722C129.275 221.523 129.722 221.97 129.722 222.523V229.503C129.722 230.056 129.275 230.503 128.722 230.503H128.459C127.906 230.503 127.459 230.056 127.459 229.503V222.523ZM132.741 222.523C132.741 221.97 132.293 221.523 131.741 221.523H131.477C130.925 221.523 130.477 221.97 130.477 222.523V229.503C130.477 230.056 130.925 230.503 131.477 230.503H131.741C132.293 230.503 132.741 230.056 132.741 229.503V222.523ZM124.44 222.523C124.44 221.97 124.888 221.523 125.44 221.523H125.704C126.256 221.523 126.704 221.97 126.704 222.523V229.503C126.704 230.056 126.256 230.503 125.704 230.503H125.44C124.888 230.503 124.44 230.056 124.44 229.503V222.523ZM143.291 222.523C143.291 221.97 142.843 221.523 142.291 221.523H142.027C141.475 221.523 141.027 221.97 141.027 222.523V229.503C141.027 230.056 141.475 230.503 142.027 230.503H142.291C142.843 230.503 143.291 230.056 143.291 229.503V222.523ZM144.046 222.523C144.046 221.97 144.493 221.523 145.046 221.523H145.31C145.862 221.523 146.31 221.97 146.31 222.523V229.503C146.31 230.056 145.862 230.503 145.31 230.503H145.046C144.493 230.503 144.046 230.056 144.046 229.503V222.523ZM149.328 222.523C149.328 221.97 148.88 221.523 148.328 221.523H148.064C147.512 221.523 147.064 221.97 147.064 222.523V229.503C147.064 230.056 147.512 230.503 148.064 230.503H148.328C148.88 230.503 149.328 230.056 149.328 229.503V222.523ZM153.101 222.523C153.101 221.97 153.549 221.523 154.101 221.523H154.365C154.917 221.523 155.365 221.97 155.365 222.523V229.503C155.365 230.056 154.917 230.503 154.365 230.503H154.101C153.549 230.503 153.101 230.056 153.101 229.503V222.523ZM158.384 222.523C158.384 221.97 157.936 221.523 157.384 221.523H157.12C156.567 221.523 156.12 221.97 156.12 222.523V229.503C156.12 230.056 156.567 230.503 157.12 230.503H157.384C157.936 230.503 158.384 230.056 158.384 229.503V222.523ZM159.138 222.523C159.138 221.97 159.586 221.523 160.138 221.523H160.402C160.954 221.523 161.402 221.97 161.402 222.523V229.503C161.402 230.056 160.954 230.503 160.402 230.503H160.138C159.586 230.503 159.138 230.056 159.138 229.503V222.523ZM152.347 222.523C152.347 221.97 151.899 221.523 151.347 221.523H151.083C150.53 221.523 150.083 221.97 150.083 222.523V229.503C150.083 230.056 150.53 230.503 151.083 230.503H151.347C151.899 230.503 152.347 230.056 152.347 229.503V222.523ZM162.157 222.523C162.157 221.97 162.605 221.523 163.157 221.523H163.421C163.973 221.523 164.421 221.97 164.421 222.523V229.503C164.421 230.056 163.973 230.503 163.421 230.503H163.157C162.605 230.503 162.157 230.056 162.157 229.503V222.523ZM167.439 222.523C167.439 221.97 166.991 221.523 166.439 221.523H166.175C165.623 221.523 165.175 221.97 165.175 222.523V229.503C165.175 230.056 165.623 230.503 166.175 230.503H166.439C166.991 230.503 167.439 230.056 167.439 229.503V222.523ZM168.194 222.523C168.194 221.97 168.642 221.523 169.194 221.523H169.458C170.01 221.523 170.458 221.97 170.458 222.523V229.503C170.458 230.056 170.01 230.503 169.458 230.503H169.194C168.642 230.503 168.194 230.056 168.194 229.503V222.523ZM176.495 222.523C176.495 221.97 176.047 221.523 175.495 221.523H175.231C174.678 221.523 174.231 221.97 174.231 222.523V229.503C174.231 230.056 174.678 230.503 175.231 230.503H175.495C176.047 230.503 176.495 230.056 176.495 229.503V222.523ZM177.249 222.523C177.249 221.97 177.697 221.523 178.249 221.523H178.513C179.065 221.523 179.513 221.97 179.513 222.523V229.503C179.513 230.056 179.065 230.503 178.513 230.503H178.249C177.697 230.503 177.249 230.056 177.249 229.503V222.523ZM182.532 222.523C182.532 221.97 182.084 221.523 181.532 221.523H181.268C180.715 221.523 180.268 221.97 180.268 222.523V229.503C180.268 230.056 180.715 230.503 181.268 230.503H181.532C182.084 230.503 182.532 230.056 182.532 229.503V222.523ZM171.212 222.523C171.212 221.97 171.66 221.523 172.212 221.523H172.476C173.028 221.523 173.476 221.97 173.476 222.523V229.503C173.476 230.056 173.028 230.503 172.476 230.503H172.212C171.66 230.503 171.212 230.056 171.212 229.503V222.523ZM185.55 222.523C185.55 221.97 185.102 221.523 184.55 221.523H184.286C183.734 221.523 183.286 221.97 183.286 222.523V229.503C183.286 230.056 183.734 230.503 184.286 230.503H184.55C185.102 230.503 185.55 230.056 185.55 229.503V222.523ZM186.305 222.523C186.305 221.97 186.752 221.523 187.305 221.523H187.569C188.121 221.523 188.569 221.97 188.569 222.523V229.503C188.569 230.056 188.121 230.503 187.569 230.503H187.305C186.752 230.503 186.305 230.056 186.305 229.503V222.523ZM191.587 222.523C191.587 221.97 191.139 221.523 190.587 221.523H190.323C189.771 221.523 189.323 221.97 189.323 222.523V229.503C189.323 230.056 189.771 230.503 190.323 230.503H190.587C191.139 230.503 191.587 230.056 191.587 229.503V222.523ZM195.36 222.523C195.36 221.97 195.808 221.523 196.36 221.523H196.624C197.176 221.523 197.624 221.97 197.624 222.523V229.503C197.624 230.056 197.176 230.503 196.624 230.503H196.36C195.808 230.503 195.36 230.056 195.36 229.503V222.523ZM200.643 222.523C200.643 221.97 200.195 221.523 199.643 221.523H199.379C198.826 221.523 198.379 221.97 198.379 222.523V229.503C198.379 230.056 198.826 230.503 199.379 230.503H199.643C200.195 230.503 200.643 230.056 200.643 229.503V222.523ZM201.397 222.523C201.397 221.97 201.845 221.523 202.397 221.523H202.661C203.213 221.523 203.661 221.97 203.661 222.523V229.503C203.661 230.056 203.213 230.503 202.661 230.503H202.397C201.845 230.503 201.397 230.056 201.397 229.503V222.523ZM194.606 222.523C194.606 221.97 194.158 221.523 193.606 221.523H193.342C192.789 221.523 192.342 221.97 192.342 222.523V229.503C192.342 230.056 192.789 230.503 193.342 230.503H193.606C194.158 230.503 194.606 230.056 194.606 229.503V222.523ZM204.416 222.523C204.416 221.97 204.864 221.523 205.416 221.523H205.68C206.232 221.523 206.68 221.97 206.68 222.523V229.503C206.68 230.056 206.232 230.503 205.68 230.503H205.416C204.864 230.503 204.416 230.056 204.416 229.503V222.523ZM209.698 222.523C209.698 221.97 209.25 221.523 208.698 221.523H208.434C207.882 221.523 207.434 221.97 207.434 222.523V229.503C207.434 230.056 207.882 230.503 208.434 230.503H208.698C209.25 230.503 209.698 230.056 209.698 229.503V222.523ZM210.453 222.523C210.453 221.97 210.901 221.523 211.453 221.523H211.717C212.269 221.523 212.717 221.97 212.717 222.523V229.503C212.717 230.056 212.269 230.503 211.717 230.503H211.453C210.901 230.503 210.453 230.056 210.453 229.503V222.523ZM218.754 222.523C218.754 221.97 218.306 221.523 217.754 221.523H217.49C216.937 221.523 216.49 221.97 216.49 222.523V229.503C216.49 230.056 216.937 230.503 217.49 230.503H217.754C218.306 230.503 218.754 230.056 218.754 229.503V222.523ZM219.508 222.523C219.508 221.97 219.956 221.523 220.508 221.523H220.772C221.324 221.523 221.772 221.97 221.772 222.523V229.503C221.772 230.056 221.324 230.503 220.772 230.503H220.508C219.956 230.503 219.508 230.056 219.508 229.503V222.523ZM224.791 222.523C224.791 221.97 224.343 221.523 223.791 221.523H223.527C222.974 221.523 222.527 221.97 222.527 222.523V229.503C222.527 230.056 222.974 230.503 223.527 230.503H223.791C224.343 230.503 224.791 230.056 224.791 229.503V222.523ZM225.545 222.523C225.545 221.97 225.993 221.523 226.545 221.523H226.809C227.361 221.523 227.809 221.97 227.809 222.523V229.503C227.809 230.056 227.361 230.503 226.809 230.503H226.545C225.993 230.503 225.545 230.056 225.545 229.503V222.523ZM230.828 222.523C230.828 221.97 230.38 221.523 229.828 221.523H229.564C229.011 221.523 228.564 221.97 228.564 222.523V229.503C228.564 230.056 229.011 230.503 229.564 230.503H229.828C230.38 230.503 230.828 230.056 230.828 229.503V222.523ZM231.582 222.523C231.582 221.97 232.03 221.523 232.582 221.523H232.846C233.398 221.523 233.846 221.97 233.846 222.523V229.503C233.846 230.056 233.398 230.503 232.846 230.503H232.582C232.03 230.503 231.582 230.056 231.582 229.503V222.523ZM215.735 222.523C215.735 221.97 215.287 221.523 214.735 221.523H214.471C213.919 221.523 213.471 221.97 213.471 222.523V229.503C213.471 230.056 213.919 230.503 214.471 230.503H214.735C215.287 230.503 215.735 230.056 215.735 229.503V222.523Z" fill="#D89B00"/>
</svg>
