<svg width="288" height="227" viewBox="0 0 288 227" fill="none" xmlns="http://www.w3.org/2000/svg">
<rect y="166" width="288" height="61" fill="#9E9E9E"/>
<rect x="6" y="173" width="275" height="48" fill="#505050"/>
<path d="M25 137H264L288 166H0L25 137Z" fill="#4F4F4F"/>
<rect x="16" y="182" width="15" height="31" rx="3" fill="#BA4E4E"/>
<rect x="41.5" y="183.5" width="115" height="28" stroke="#3E3E3E" stroke-width="3"/>
<path fill-rule="evenodd" clip-rule="evenodd" d="M191 185C191 183.343 189.657 182 188 182H177C175.343 182 174 183.343 174 185V210C174 211.657 175.343 213 177 213H188C189.657 213 191 211.657 191 210V185ZM241 185C241 183.343 239.657 182 238 182H227C225.343 182 224 183.343 224 185V210C224 211.657 225.343 213 227 213H238C239.657 213 241 211.657 241 210V185ZM248 185C248 183.343 249.343 182 251 182H262C263.657 182 265 183.343 265 185V210C265 211.657 263.657 213 262 213H251C249.343 213 248 211.657 248 210V185ZM216 185C216 183.343 214.657 182 213 182H202C200.343 182 199 183.343 199 185V210C199 211.657 200.343 213 202 213H213C214.657 213 216 211.657 216 210V185Z" fill="#00BD13"/>
<path fill-rule="evenodd" clip-rule="evenodd" d="M241.314 4.43264C241.546 2.50085 240.218 0.72785 238.299 0.406719C236.362 0.0825164 234.517 1.35335 234.129 3.27895L206.777 139.025C205.757 144.084 209.131 148.982 214.221 149.834C219.358 150.693 224.172 147.089 224.793 141.917L241.314 4.43264ZM52.5752 10.5514C52.1609 8.64963 50.3271 7.40775 48.4074 7.72898C46.4684 8.05346 45.135 9.85569 45.3919 11.8048L62.4844 141.51C63.1581 146.622 67.9359 150.157 73.0215 149.306C78.1563 148.446 81.5284 143.467 80.4203 138.38L52.5752 10.5514Z" fill="#616161"/>
</svg>
