<svg width="306" height="283" viewBox="0 0 306 283" fill="none" xmlns="http://www.w3.org/2000/svg">
<path d="M248.5 239L260 224V224C266.632 213.389 271.693 201.874 275.025 189.814L275.865 186.775C278.941 175.643 280.5 164.146 280.5 152.596V152.103C280.5 139.769 278.675 127.503 275.084 115.703V115.703C271.711 104.622 266.814 94.0623 260.535 84.3287L259.674 82.9954C253.259 73.052 245.423 64.1013 236.415 56.4279V56.4279C227.519 48.8491 217.573 42.5965 206.886 37.864L205.669 37.325C193.954 32.1367 181.537 28.7033 168.821 27.1354L167.309 26.9491C156.814 25.6551 146.195 25.7234 135.717 27.1522V27.1522C124.296 28.7096 113.151 31.8687 102.612 36.5363L100.29 37.5646C89.1589 42.4939 78.826 49.0567 69.6324 57.036V57.036C61.2498 64.3115 53.8961 72.6937 47.7736 81.9521L46.3317 84.1325C39.8115 93.9923 34.752 104.743 31.3103 116.052V116.052C27.7895 127.62 26 139.646 26 151.738V152.596C26 164.146 27.5592 175.643 30.6353 186.775L31.5872 190.22C34.8435 202.005 39.8718 213.226 46.5 223.5V223.5L57.5 239V239C58.9223 240.991 58.6163 243.734 56.7901 245.363L44.4144 256.401C42.8209 257.822 40.3669 257.64 39 256V256L26 239V239C18.3643 226.716 12.321 213.512 8.0154 199.705L6.67106 195.393C2.24918 181.213 0 166.412 0 151.558V151.558C0 137.611 1.98894 123.704 5.90674 110.319V110.319C9.94695 96.5146 15.9952 83.3797 23.8573 71.3356L24.2808 70.6869C31.7265 59.2807 40.672 48.9276 50.8771 39.9057L53.4369 37.6428C64.4181 27.9347 76.7797 19.9105 90.1173 13.8326V13.8326C102.973 7.97434 116.744 3.96513 130.73 1.96719V1.96719C144.417 0.0118041 158.45 -0.0629302 172.153 1.78463L175.497 2.2355C189.099 4.06946 202.377 7.79944 214.944 13.3168V13.3168C229.55 19.7295 243.016 28.4772 254.812 39.2168L255.515 39.8573C265.462 48.9128 274.168 59.242 281.41 70.577L282.019 71.53C289.634 83.4495 295.517 96.3908 299.49 109.966V109.966C303.476 123.586 305.5 137.704 305.5 151.896V152.335C305.5 166.706 303.466 181.005 299.459 194.806L298.073 199.581C294.043 213.461 288.131 226.725 280.5 239V239L267.5 256V256C265.798 257.702 263.081 257.836 261.22 256.309L249.109 246.371C246.861 244.527 246.585 241.188 248.5 239V239Z" fill="url(#paint0_linear_0_1)"/>
<path fill-rule="evenodd" clip-rule="evenodd" d="M144.989 51.2727V47.5909L152.011 36.5455H153.58H155.352H158.011V47.5909H160.023V51.2727H158.011V54H153.477V51.2727H144.989ZM153.443 41.4545H153.58V47.5909H149.659V47.4545L153.443 41.4545ZM64.7614 224.477C63.1761 224.472 61.8068 224.105 60.6534 223.378C59.5 222.651 58.6108 221.602 57.9858 220.233C57.3608 218.864 57.0511 217.222 57.0568 215.307C57.0625 213.386 57.375 211.756 57.9943 210.415C58.6193 209.074 59.5057 208.054 60.6534 207.355C61.8068 206.656 63.1761 206.307 64.7614 206.307C66.3466 206.307 67.7159 206.659 68.8693 207.364C70.0227 208.062 70.9119 209.082 71.5369 210.423C72.1619 211.764 72.4716 213.392 72.4659 215.307C72.4659 217.233 72.1534 218.881 71.5284 220.25C70.9034 221.619 70.0142 222.668 68.8608 223.395C67.7131 224.116 66.3466 224.477 64.7614 224.477ZM64.7614 220.625C65.5795 220.625 66.25 220.199 66.7727 219.347C67.3011 218.489 67.5625 217.142 67.5568 215.307C67.5568 214.108 67.4375 213.128 67.1989 212.366C66.9602 211.605 66.6307 211.043 66.2102 210.679C65.7898 210.31 65.3068 210.125 64.7614 210.125C63.9432 210.125 63.2756 210.54 62.7585 211.369C62.2415 212.199 61.9773 213.511 61.9659 215.307C61.9602 216.528 62.0767 217.534 62.3153 218.324C62.554 219.108 62.8835 219.688 63.304 220.062C63.7301 220.438 64.2159 220.625 64.7614 220.625ZM244.509 218.582C245.616 219.02 246.875 219.239 248.284 219.239C249.693 219.239 250.949 219.02 252.051 218.582C253.159 218.145 254.028 217.551 254.659 216.801C255.295 216.051 255.614 215.205 255.614 214.261C255.614 213.54 255.432 212.881 255.068 212.284C254.705 211.688 254.216 211.193 253.602 210.801C252.989 210.403 252.307 210.148 251.557 210.034V209.898C252.534 209.727 253.347 209.287 253.994 208.577C254.642 207.866 254.966 207.023 254.966 206.045C254.966 205.136 254.676 204.327 254.097 203.616C253.517 202.901 252.724 202.338 251.719 201.929C250.713 201.514 249.568 201.307 248.284 201.307C247 201.307 245.855 201.511 244.849 201.92C243.844 202.33 243.051 202.892 242.472 203.608C241.892 204.318 241.602 205.131 241.602 206.045C241.602 207.017 241.92 207.861 242.557 208.577C243.199 209.287 244.017 209.727 245.011 209.898V210.034C244.256 210.148 243.571 210.403 242.957 210.801C242.344 211.193 241.855 211.688 241.491 212.284C241.134 212.881 240.955 213.54 240.955 214.261C240.955 215.205 241.27 216.051 241.901 216.801C242.537 217.551 243.406 218.145 244.509 218.582ZM249.477 215.693C249.131 215.875 248.733 215.966 248.284 215.966C247.841 215.966 247.443 215.875 247.091 215.693C246.744 215.506 246.469 215.253 246.264 214.935C246.065 214.616 245.966 214.256 245.966 213.852C245.966 213.449 246.065 213.091 246.264 212.778C246.469 212.466 246.744 212.222 247.091 212.045C247.443 211.864 247.841 211.773 248.284 211.773C248.733 211.773 249.131 211.864 249.477 212.045C249.824 212.222 250.097 212.466 250.295 212.778C250.5 213.091 250.602 213.449 250.602 213.852C250.602 214.256 250.5 214.619 250.295 214.943C250.097 215.261 249.824 215.511 249.477 215.693ZM249.341 208.253C249.034 208.418 248.682 208.5 248.284 208.5C247.892 208.5 247.54 208.418 247.227 208.253C246.92 208.082 246.679 207.855 246.503 207.571C246.327 207.281 246.239 206.955 246.239 206.591C246.239 206.227 246.327 205.906 246.503 205.628C246.679 205.344 246.92 205.122 247.227 204.963C247.54 204.798 247.892 204.716 248.284 204.716C248.682 204.716 249.034 204.798 249.341 204.963C249.648 205.122 249.889 205.344 250.065 205.628C250.241 205.906 250.33 206.227 250.33 206.591C250.33 206.955 250.241 207.281 250.065 207.571C249.889 207.861 249.648 208.088 249.341 208.253ZM246.455 114.239C245.437 114.239 244.472 114.08 243.557 113.761C242.648 113.438 241.841 112.929 241.136 112.236C240.432 111.543 239.878 110.639 239.474 109.526C239.077 108.412 238.881 107.062 238.886 105.477C238.892 104.062 239.074 102.79 239.432 101.659C239.795 100.528 240.31 99.5653 240.974 98.7699C241.645 97.9744 242.446 97.3665 243.378 96.946C244.31 96.5199 245.347 96.3068 246.489 96.3068C247.773 96.3068 248.903 96.554 249.881 97.0483C250.858 97.5426 251.636 98.2045 252.216 99.0341C252.801 99.858 253.142 100.767 253.239 101.761H248.568C248.46 101.267 248.21 100.906 247.818 100.679C247.432 100.446 246.989 100.33 246.489 100.33C245.494 100.33 244.764 100.761 244.298 101.625C243.838 102.489 243.602 103.625 243.591 105.034H243.693C243.915 104.5 244.25 104.043 244.699 103.662C245.148 103.281 245.67 102.989 246.267 102.784C246.864 102.58 247.494 102.477 248.159 102.477C249.216 102.477 250.139 102.716 250.929 103.193C251.724 103.67 252.344 104.324 252.787 105.153C253.23 105.983 253.449 106.932 253.443 108C253.449 109.25 253.153 110.344 252.557 111.281C251.966 112.219 251.145 112.946 250.094 113.463C249.043 113.98 247.83 114.239 246.455 114.239ZM246.42 110.659C246.892 110.659 247.31 110.551 247.673 110.335C248.043 110.119 248.33 109.824 248.534 109.449C248.744 109.074 248.847 108.648 248.841 108.17C248.847 107.688 248.744 107.261 248.534 106.892C248.33 106.517 248.043 106.222 247.673 106.006C247.31 105.79 246.892 105.682 246.42 105.682C246.074 105.682 245.753 105.744 245.457 105.869C245.168 105.989 244.915 106.162 244.699 106.389C244.483 106.611 244.312 106.875 244.187 107.182C244.068 107.483 244.006 107.812 244 108.17C244.006 108.648 244.114 109.074 244.324 109.449C244.534 109.824 244.821 110.119 245.185 110.335C245.548 110.551 245.96 110.659 246.42 110.659ZM50.1591 110.591V114H63.5568V110.216H56.7386V110.114L58.375 108.75C59.7045 107.642 60.7301 106.688 61.4517 105.886C62.1733 105.085 62.6733 104.355 62.9517 103.696C63.2301 103.031 63.3693 102.364 63.3693 101.693C63.3693 100.608 63.0881 99.6619 62.5256 98.8551C61.9688 98.0483 61.1761 97.4233 60.1477 96.9801C59.125 96.5312 57.9148 96.3068 56.517 96.3068C55.1648 96.3068 53.9858 96.5455 52.9801 97.0227C51.9744 97.5 51.196 98.1818 50.6449 99.0682C50.0938 99.9545 49.8182 101.011 49.8182 102.239H54.3182C54.3182 101.75 54.4091 101.335 54.5909 100.994C54.7727 100.653 55.0284 100.395 55.358 100.219C55.6932 100.043 56.0795 99.9545 56.517 99.9545C56.9545 99.9545 57.3409 100.043 57.6761 100.219C58.0114 100.389 58.2727 100.634 58.4602 100.952C58.6534 101.27 58.75 101.653 58.75 102.102C58.75 102.511 58.6648 102.884 58.4943 103.219C58.3295 103.554 58.0909 103.881 57.7784 104.199C57.4716 104.511 57.1023 104.847 56.6705 105.205L50.1591 110.591ZM89.9773 73.2386C88.6023 73.2386 87.3807 73.0028 86.3125 72.5312C85.25 72.054 84.4148 71.3977 83.8068 70.5625C83.1989 69.7273 82.892 68.767 82.8864 67.6818H87.6591C87.6648 68.017 87.767 68.3182 87.9659 68.5852C88.1705 68.8466 88.4489 69.0511 88.8011 69.1989C89.1534 69.3466 89.5568 69.4205 90.0114 69.4205C90.4489 69.4205 90.8352 69.3438 91.1705 69.1903C91.5057 69.0312 91.767 68.8125 91.9545 68.5341C92.142 68.2557 92.233 67.9375 92.2273 67.5795C92.233 67.2273 92.125 66.9148 91.9034 66.642C91.6875 66.3693 91.3835 66.1562 90.9915 66.0028C90.5994 65.8494 90.1477 65.7727 89.6364 65.7727H87.8636V62.5H89.6364C90.108 62.5 90.5227 62.4233 90.8807 62.2699C91.2443 62.1165 91.5256 61.9034 91.7244 61.6307C91.929 61.358 92.0284 61.0455 92.0227 60.6932C92.0284 60.3523 91.946 60.0511 91.7756 59.7898C91.6051 59.5284 91.3665 59.3239 91.0597 59.1761C90.7585 59.0284 90.4091 58.9545 90.0114 58.9545C89.5795 58.9545 89.1932 59.0312 88.8523 59.1847C88.517 59.3381 88.2528 59.5511 88.0597 59.8239C87.8665 60.0966 87.767 60.4091 87.7614 60.7614H83.2273C83.233 59.6932 83.5256 58.75 84.1051 57.9318C84.6903 57.1136 85.4915 56.4716 86.5085 56.0057C87.5256 55.5398 88.6932 55.3068 90.0114 55.3068C91.3011 55.3068 92.4403 55.5256 93.429 55.9631C94.4233 56.4006 95.1989 57.0028 95.7557 57.7699C96.3182 58.5312 96.5966 59.4034 96.5909 60.3864C96.6023 61.3636 96.267 62.1648 95.5852 62.7898C94.9091 63.4148 94.0511 63.7841 93.0114 63.8977V64.0341C94.4205 64.1875 95.4801 64.6193 96.1903 65.3295C96.9006 66.0341 97.25 66.9205 97.2386 67.9886C97.2443 69.0114 96.9375 69.9176 96.3182 70.7074C95.7045 71.4972 94.8494 72.1165 93.7528 72.5653C92.6619 73.0142 91.4034 73.2386 89.9773 73.2386ZM208.577 72.5312C209.616 73.0028 210.807 73.2386 212.148 73.2386C213.568 73.2386 214.804 72.9744 215.855 72.446C216.906 71.9119 217.722 71.1761 218.301 70.2386C218.886 69.2955 219.176 68.2159 219.17 67C219.176 65.892 218.94 64.9148 218.463 64.0682C217.991 63.2159 217.347 62.5483 216.528 62.0653C215.716 61.5824 214.79 61.3409 213.75 61.3409C212.864 61.3409 212.085 61.517 211.415 61.8693C210.744 62.2159 210.273 62.6534 210 63.1818H209.898L210.239 59.3295H218.08V55.5455H206.352L205.67 65.1591L209.83 65.9773C210.028 65.5511 210.338 65.2188 210.759 64.9801C211.185 64.7358 211.648 64.6136 212.148 64.6136C212.631 64.6136 213.057 64.7188 213.426 64.929C213.795 65.1335 214.085 65.4261 214.295 65.8068C214.506 66.1818 214.608 66.625 214.602 67.1364C214.608 67.642 214.506 68.0852 214.295 68.4659C214.085 68.8466 213.795 69.142 213.426 69.3523C213.057 69.5568 212.631 69.6591 212.148 69.6591C211.523 69.6591 210.983 69.4801 210.528 69.1222C210.08 68.7642 209.847 68.2841 209.83 67.6818H205.227C205.239 68.767 205.54 69.7273 206.131 70.5625C206.727 71.3977 207.543 72.054 208.577 72.5312ZM49.7159 149.545V167H44.9773V153.909H44.875L41.0568 156.193V152.17L45.3523 149.545H49.7159ZM255.795 153.432L248.943 167H253.818L260.705 153.33V149.545H247.75V153.33H255.795V153.432Z" fill="#2D2D2D"/>
<path d="M151.339 123.947C152.144 122.368 154.135 121.827 155.628 122.782L250.659 183.535C251.96 184.366 252.417 186.049 251.716 187.424L246.548 197.568C245.844 198.949 244.203 199.567 242.763 198.993L138.055 157.233C136.415 156.579 135.692 154.658 136.493 153.085L151.339 123.947Z" fill="url(#paint1_linear_0_1)"/>
<path d="M107.077 282L120.33 255.48V255.295H105.06V252.909H123.114V255.409L109.875 282H107.077ZM125.894 282.213C125.335 282.213 124.853 282.014 124.445 281.616C124.048 281.209 123.849 280.726 123.849 280.168C123.849 279.599 124.048 279.116 124.445 278.719C124.853 278.321 125.335 278.122 125.894 278.122C126.462 278.122 126.945 278.321 127.343 278.719C127.741 279.116 127.94 279.599 127.94 280.168C127.94 280.537 127.845 280.878 127.656 281.19C127.476 281.503 127.229 281.754 126.917 281.943C126.614 282.123 126.273 282.213 125.894 282.213ZM134.967 282L148.22 255.48V255.295H132.95V252.909H151.004V255.409L137.766 282H134.967ZM153.629 275.75V273.591L166.597 252.909H168.188V256.531H167.009L156.597 273.179V273.364H173.6V275.75H153.629ZM167.208 282V275.068V274.074V252.909H169.737V282H167.208ZM188.355 282.398C186.499 282.398 184.847 282.047 183.398 281.347C181.949 280.646 180.813 279.689 179.989 278.477C179.165 277.256 178.753 275.878 178.753 274.344C178.753 273.141 179.004 272.019 179.506 270.977C180.008 269.926 180.699 269.045 181.58 268.335C182.46 267.616 183.45 267.147 184.548 266.929V266.773C183.118 266.356 181.968 265.537 181.097 264.315C180.225 263.084 179.795 261.688 179.804 260.125C179.795 258.676 180.164 257.379 180.912 256.233C181.66 255.087 182.678 254.183 183.966 253.52C185.263 252.848 186.726 252.511 188.355 252.511C189.974 252.511 191.428 252.848 192.716 253.52C194.004 254.183 195.022 255.087 195.77 256.233C196.527 257.379 196.911 258.676 196.92 260.125C196.911 261.678 196.471 263.075 195.599 264.315C194.728 265.546 193.582 266.366 192.162 266.773V266.929C193.26 267.137 194.245 267.601 195.116 268.321C195.988 269.041 196.679 269.926 197.19 270.977C197.702 272.019 197.957 273.141 197.957 274.344C197.957 275.878 197.541 277.256 196.707 278.477C195.884 279.689 194.747 280.646 193.298 281.347C191.859 282.047 190.211 282.398 188.355 282.398ZM188.355 280.011C189.738 280.011 190.95 279.765 191.991 279.273C193.043 278.771 193.862 278.084 194.449 277.213C195.045 276.342 195.344 275.343 195.344 274.216C195.344 273.051 195.036 272.014 194.42 271.105C193.805 270.187 192.972 269.462 191.92 268.932C190.869 268.392 189.681 268.122 188.355 268.122C187.029 268.122 185.836 268.392 184.776 268.932C183.724 269.462 182.891 270.187 182.276 271.105C181.67 272.014 181.366 273.051 181.366 274.216C181.366 275.343 181.655 276.342 182.233 277.213C182.82 278.084 183.639 278.771 184.69 279.273C185.751 279.765 186.973 280.011 188.355 280.011ZM188.355 265.849C189.491 265.849 190.509 265.608 191.409 265.125C192.309 264.642 193.019 263.984 193.54 263.151C194.07 262.308 194.34 261.351 194.349 260.281C194.34 259.221 194.075 258.283 193.554 257.469C193.033 256.645 192.323 256.006 191.423 255.551C190.533 255.087 189.51 254.855 188.355 254.855C187.2 254.855 186.168 255.087 185.259 255.551C184.359 256.006 183.649 256.645 183.128 257.469C182.616 258.283 182.366 259.221 182.375 260.281C182.366 261.351 182.621 262.308 183.142 263.151C183.672 263.984 184.387 264.642 185.287 265.125C186.196 265.608 187.219 265.849 188.355 265.849Z" fill="black"/>
<defs>
<linearGradient id="paint0_linear_0_1" x1="305" y1="173" x2="-4.46802e-06" y2="166" gradientUnits="userSpaceOnUse">
<stop stop-color="#99DE9B"/>
<stop offset="1" stop-color="#D09B9B"/>
</linearGradient>
<linearGradient id="paint1_linear_0_1" x1="248.5" y1="193.5" x2="144.5" y2="137" gradientUnits="userSpaceOnUse">
<stop stop-color="#D9D9D9"/>
<stop offset="0.416667" stop-color="#D9D9D9" stop-opacity="0.354167"/>
<stop offset="1" stop-color="#D9D9D9" stop-opacity="0"/>
</linearGradient>
</defs>
</svg>
