<svg width="332" height="70" viewBox="0 0 332 70" fill="none" xmlns="http://www.w3.org/2000/svg">
<path d="M10.1932 35H1.125L12.9034 0.0909081H24.1364L35.9148 35H26.8466L18.6477 8.88636H18.375L10.1932 35ZM8.98295 21.2614H27.9375V27.6705H8.98295V21.2614ZM52.5767 35H39.6733V0.0909081H52.5597C56.1165 0.0909081 59.179 0.789772 61.7472 2.1875C64.3267 3.57386 66.3153 5.57386 67.7131 8.1875C69.1108 10.7898 69.8097 13.9034 69.8097 17.5284C69.8097 21.1648 69.1108 24.2898 67.7131 26.9034C66.3267 29.517 64.3438 31.5227 61.7642 32.9205C59.1847 34.3068 56.1222 35 52.5767 35ZM48.1108 27.8068H52.2528C54.2074 27.8068 55.8608 27.4773 57.2131 26.8182C58.5767 26.1477 59.6051 25.0625 60.2983 23.5625C61.0028 22.0511 61.3551 20.0398 61.3551 17.5284C61.3551 15.017 61.0028 13.017 60.2983 11.5284C59.5938 10.0284 58.554 8.94886 57.179 8.28977C55.8153 7.61932 54.1335 7.28409 52.1335 7.28409H48.1108V27.8068ZM80.2244 35H71.1562L82.9347 0.0909081H94.1676L105.946 35H96.8778L88.679 8.88636H88.4062L80.2244 35ZM79.0142 21.2614H97.9688V27.6705H79.0142V21.2614ZM109.705 0.0909081H120.153L129.017 21.7045H129.426L138.29 0.0909081H148.739V35H140.523V13.5568H140.233L131.847 34.7784H126.597L118.21 13.4375H117.92V35H109.705V0.0909081ZM161.553 35H152.484L164.263 0.0909081H175.496L187.274 35H178.206L170.007 8.88636H169.734L161.553 35ZM160.342 21.2614H179.297V27.6705H160.342V21.2614ZM220.743 0.0909081V35H213.584L199.692 14.8523H199.47V35H191.033V0.0909081H198.294L212.033 20.2045H212.322V0.0909081H220.743ZM224.906 6.94318V0.0909081H254.412V6.94318H243.827V35H235.509V6.94318H224.906ZM266.97 0.0909081V35H258.533V0.0909081H266.97ZM301.977 0.0909081V35H294.818L280.926 14.8523H280.705V35H272.267V0.0909081H279.528L293.267 20.2045H293.557V0.0909081H301.977ZM307.283 35V0.0909081H331.624V6.94318H315.72V14.1023H330.379V20.9716H315.72V28.1477H331.624V35H307.283Z" fill="white"/>
<path d="M5.09659 69H0.5625L6.4517 51.5455H12.0682L17.9574 69H13.4233L9.32386 55.9432H9.1875L5.09659 69ZM4.49148 62.1307H13.9688V65.3352H4.49148V62.1307ZM24.9929 69V51.5455H32.2031C33.5099 51.5455 34.6378 51.8011 35.5866 52.3125C36.5412 52.8182 37.277 53.5256 37.794 54.4347C38.3111 55.3381 38.5696 56.3892 38.5696 57.5881C38.5696 58.7926 38.3054 59.8466 37.777 60.75C37.2543 61.6477 36.5071 62.3437 35.5355 62.8381C34.5639 63.3324 33.4105 63.5795 32.0753 63.5795H27.6264V60.2557H31.2912C31.9276 60.2557 32.4588 60.1449 32.8849 59.9233C33.3168 59.7017 33.6435 59.392 33.8651 58.9943C34.0866 58.5909 34.1974 58.1222 34.1974 57.5881C34.1974 57.0483 34.0866 56.5824 33.8651 56.1903C33.6435 55.7926 33.3168 55.4858 32.8849 55.2699C32.4531 55.054 31.9219 54.946 31.2912 54.946H29.2116V69H24.9929ZM40.6491 69V51.5455H52.8196V54.9716H44.8679V58.5511H52.1974V61.9858H44.8679V65.5739H52.8196V69H40.6491ZM71.9361 60.2727C71.9361 62.1932 71.5668 63.821 70.8281 65.1562C70.0895 66.4915 69.0895 67.5057 67.8281 68.1989C66.5724 68.892 65.1634 69.2386 63.6009 69.2386C62.0327 69.2386 60.6207 68.8892 59.3651 68.1903C58.1094 67.4915 57.1122 66.4773 56.3736 65.1477C55.6406 63.8125 55.2741 62.1875 55.2741 60.2727C55.2741 58.3523 55.6406 56.7244 56.3736 55.3892C57.1122 54.054 58.1094 53.0398 59.3651 52.3466C60.6207 51.6534 62.0327 51.3068 63.6009 51.3068C65.1634 51.3068 66.5724 51.6534 67.8281 52.3466C69.0895 53.0398 70.0895 54.054 70.8281 55.3892C71.5668 56.7244 71.9361 58.3523 71.9361 60.2727ZM67.6236 60.2727C67.6236 59.1364 67.4616 58.1761 67.1378 57.392C66.8196 56.608 66.3594 56.0142 65.7571 55.6108C65.1605 55.2074 64.4418 55.0057 63.6009 55.0057C62.7656 55.0057 62.0469 55.2074 61.4446 55.6108C60.8423 56.0142 60.3793 56.608 60.0554 57.392C59.7372 58.1761 59.5781 59.1364 59.5781 60.2727C59.5781 61.4091 59.7372 62.3693 60.0554 63.1534C60.3793 63.9375 60.8423 64.5312 61.4446 64.9347C62.0469 65.3381 62.7656 65.5398 63.6009 65.5398C64.4418 65.5398 65.1605 65.3381 65.7571 64.9347C66.3594 64.5312 66.8196 63.9375 67.1378 63.1534C67.4616 62.3693 67.6236 61.4091 67.6236 60.2727ZM74.3991 69V51.5455H81.6094C82.9162 51.5455 84.044 51.8011 84.9929 52.3125C85.9474 52.8182 86.6832 53.5256 87.2003 54.4347C87.7173 55.3381 87.9759 56.3892 87.9759 57.5881C87.9759 58.7926 87.7116 59.8466 87.1832 60.75C86.6605 61.6477 85.9134 62.3437 84.9418 62.8381C83.9702 63.3324 82.8168 63.5795 81.4815 63.5795H77.0327V60.2557H80.6974C81.3338 60.2557 81.8651 60.1449 82.2912 59.9233C82.723 59.7017 83.0497 59.392 83.2713 58.9943C83.4929 58.5909 83.6037 58.1222 83.6037 57.5881C83.6037 57.0483 83.4929 56.5824 83.2713 56.1903C83.0497 55.7926 82.723 55.4858 82.2912 55.2699C81.8594 55.054 81.3281 54.946 80.6974 54.946H78.6179V69H74.3991ZM90.0554 69V51.5455H94.2741V65.5739H101.536V69H90.0554ZM103.719 69V51.5455H115.89V54.9716H107.938V58.5511H115.268V61.9858H107.938V65.5739H115.89V69H103.719ZM127.967 56.7784C127.91 56.1534 127.657 55.6676 127.208 55.321C126.765 54.9688 126.131 54.7926 125.308 54.7926C124.762 54.7926 124.308 54.8636 123.944 55.0057C123.58 55.1477 123.308 55.3438 123.126 55.5938C122.944 55.8381 122.85 56.1193 122.844 56.4375C122.833 56.6989 122.884 56.929 122.998 57.1278C123.117 57.3267 123.288 57.5028 123.509 57.6562C123.737 57.804 124.009 57.9347 124.327 58.0483C124.646 58.1619 125.004 58.2614 125.401 58.3466L126.901 58.6875C127.765 58.875 128.526 59.125 129.185 59.4375C129.85 59.75 130.407 60.1222 130.856 60.554C131.31 60.9858 131.654 61.483 131.887 62.0455C132.12 62.608 132.239 63.2386 132.245 63.9375C132.239 65.0398 131.961 65.9858 131.41 66.7756C130.859 67.5653 130.066 68.1705 129.032 68.5909C128.004 69.0114 126.762 69.2216 125.308 69.2216C123.847 69.2216 122.575 69.0028 121.489 68.5653C120.404 68.1278 119.56 67.4631 118.958 66.571C118.356 65.679 118.046 64.5511 118.029 63.1875H122.069C122.103 63.75 122.254 64.2188 122.521 64.5938C122.788 64.9688 123.154 65.2528 123.62 65.446C124.092 65.6392 124.637 65.7358 125.256 65.7358C125.825 65.7358 126.308 65.6591 126.705 65.5057C127.109 65.3523 127.418 65.1392 127.634 64.8665C127.85 64.5937 127.961 64.2812 127.967 63.929C127.961 63.5994 127.859 63.3182 127.66 63.0852C127.461 62.8466 127.154 62.642 126.739 62.4716C126.33 62.2955 125.808 62.1335 125.171 61.9858L123.347 61.5597C121.836 61.2131 120.646 60.6534 119.776 59.8807C118.907 59.1023 118.475 58.0511 118.481 56.7273C118.475 55.6477 118.765 54.7017 119.35 53.8892C119.935 53.0767 120.745 52.4432 121.779 51.9886C122.813 51.5341 123.992 51.3068 125.316 51.3068C126.668 51.3068 127.842 51.5369 128.836 51.9972C129.836 52.4517 130.612 53.0909 131.163 53.9148C131.714 54.7386 131.995 55.6932 132.006 56.7784H127.967ZM155.376 57.8693H151.114C151.058 57.4318 150.941 57.0369 150.765 56.6847C150.589 56.3324 150.356 56.0312 150.066 55.7812C149.776 55.5312 149.433 55.3409 149.035 55.2102C148.643 55.0739 148.208 55.0057 147.731 55.0057C146.884 55.0057 146.154 55.2131 145.54 55.6278C144.933 56.0426 144.464 56.642 144.134 57.4261C143.81 58.2102 143.648 59.1591 143.648 60.2727C143.648 61.4318 143.813 62.4034 144.143 63.1875C144.478 63.9659 144.947 64.554 145.549 64.9517C146.157 65.3437 146.876 65.5398 147.705 65.5398C148.171 65.5398 148.594 65.4801 148.975 65.3608C149.362 65.2415 149.7 65.0682 149.989 64.8409C150.285 64.608 150.526 64.3267 150.714 63.9972C150.907 63.6619 151.04 63.2841 151.114 62.8636L155.376 62.8892C155.302 63.6619 155.077 64.4233 154.702 65.1733C154.333 65.9233 153.825 66.608 153.177 67.2273C152.529 67.8409 151.739 68.3295 150.808 68.6932C149.881 69.0568 148.819 69.2386 147.62 69.2386C146.04 69.2386 144.626 68.892 143.376 68.1989C142.131 67.5 141.148 66.483 140.427 65.1477C139.705 63.8125 139.344 62.1875 139.344 60.2727C139.344 58.3523 139.711 56.7244 140.444 55.3892C141.177 54.054 142.168 53.0398 143.418 52.3466C144.668 51.6534 146.069 51.3068 147.62 51.3068C148.677 51.3068 149.654 51.4545 150.552 51.75C151.45 52.0398 152.239 52.4659 152.921 53.0284C153.603 53.5852 154.157 54.2699 154.583 55.0824C155.009 55.8949 155.273 56.8239 155.376 57.8693ZM174.264 60.2727C174.264 62.1932 173.895 63.821 173.156 65.1562C172.418 66.4915 171.418 67.5057 170.156 68.1989C168.901 68.892 167.491 69.2386 165.929 69.2386C164.361 69.2386 162.949 68.8892 161.693 68.1903C160.438 67.4915 159.44 66.4773 158.702 65.1477C157.969 63.8125 157.602 62.1875 157.602 60.2727C157.602 58.3523 157.969 56.7244 158.702 55.3892C159.44 54.054 160.438 53.0398 161.693 52.3466C162.949 51.6534 164.361 51.3068 165.929 51.3068C167.491 51.3068 168.901 51.6534 170.156 52.3466C171.418 53.0398 172.418 54.054 173.156 55.3892C173.895 56.7244 174.264 58.3523 174.264 60.2727ZM169.952 60.2727C169.952 59.1364 169.79 58.1761 169.466 57.392C169.148 56.608 168.688 56.0142 168.085 55.6108C167.489 55.2074 166.77 55.0057 165.929 55.0057C165.094 55.0057 164.375 55.2074 163.773 55.6108C163.17 56.0142 162.707 56.608 162.384 57.392C162.065 58.1761 161.906 59.1364 161.906 60.2727C161.906 61.4091 162.065 62.3693 162.384 63.1534C162.707 63.9375 163.17 64.5312 163.773 64.9347C164.375 65.3381 165.094 65.5398 165.929 65.5398C166.77 65.5398 167.489 65.3381 168.085 64.9347C168.688 64.5312 169.148 63.9375 169.466 63.1534C169.79 62.3693 169.952 61.4091 169.952 60.2727ZM176.727 51.5455H181.952L186.384 62.3523H186.588L191.02 51.5455H196.244V69H192.136V58.2784H191.991L187.798 68.8892H185.173L180.98 58.2188H180.835V69H176.727V51.5455ZM198.876 69V51.5455H206.086C207.393 51.5455 208.521 51.8011 209.469 52.3125C210.424 52.8182 211.16 53.5256 211.677 54.4347C212.194 55.3381 212.452 56.3892 212.452 57.5881C212.452 58.7926 212.188 59.8466 211.66 60.75C211.137 61.6477 210.39 62.3437 209.418 62.8381C208.447 63.3324 207.293 63.5795 205.958 63.5795H201.509V60.2557H205.174C205.81 60.2557 206.342 60.1449 206.768 59.9233C207.2 59.7017 207.526 59.392 207.748 58.9943C207.969 58.5909 208.08 58.1222 208.08 57.5881C208.08 57.0483 207.969 56.5824 207.748 56.1903C207.526 55.7926 207.2 55.4858 206.768 55.2699C206.336 55.054 205.805 54.946 205.174 54.946H203.094V69H198.876ZM216.198 69H211.664L217.553 51.5455H223.17L229.059 69H224.525L220.425 55.9432H220.289L216.198 69ZM215.593 62.1307H225.07V65.3352H215.593V62.1307ZM245.793 51.5455V69H242.214L235.268 58.9261H235.157V69H230.938V51.5455H234.569L241.438 61.6023H241.583V51.5455H245.793ZM247.577 51.5455H252.29L255.98 58.8494H256.134L259.824 51.5455H264.537L258.153 63.1705V69H253.96V63.1705L247.577 51.5455Z" fill="white"/>
</svg>
