<svg width="600" height="600" viewBox="0 0 600 600" fill="none" xmlns="http://www.w3.org/2000/svg">
<rect width="600" height="600" rx="33" fill=""/>
<g filter="url(#filter0_d_5_9)">
<rect x="99" y="260" width="84" height="161" rx="19" fill="url(#paint0_linear_5_9)"/>
</g>
<g filter="url(#filter1_d_5_9)">
<rect x="262" y="353" width="84" height="68" rx="19" fill="url(#paint1_linear_5_9)"/>
</g>
<g filter="url(#filter2_d_5_9)">
<rect x="425" y="138" width="84" height="283" rx="19" fill="url(#paint2_linear_5_9)"/>
</g>
<path d="M105.968 453.252C105.968 455.34 105.248 457.08 103.808 458.472C102.392 459.84 100.22 460.524 97.2919 460.524H92.4679V471H89.1919V445.908H97.2919C100.124 445.908 102.272 446.592 103.736 447.96C105.224 449.328 105.968 451.092 105.968 453.252ZM97.2919 457.824C99.1159 457.824 100.46 457.428 101.324 456.636C102.188 455.844 102.62 454.716 102.62 453.252C102.62 450.156 100.844 448.608 97.2919 448.608H92.4679V457.824H97.2919ZM118.644 471.324C116.796 471.324 115.116 470.904 113.604 470.064C112.116 469.224 110.94 468.036 110.076 466.5C109.236 464.94 108.816 463.14 108.816 461.1C108.816 459.084 109.248 457.308 110.112 455.772C111 454.212 112.2 453.024 113.712 452.208C115.224 451.368 116.916 450.948 118.788 450.948C120.66 450.948 122.352 451.368 123.864 452.208C125.376 453.024 126.564 454.2 127.428 455.736C128.316 457.272 128.76 459.06 128.76 461.1C128.76 463.14 128.304 464.94 127.392 466.5C126.504 468.036 125.292 469.224 123.756 470.064C122.22 470.904 120.516 471.324 118.644 471.324ZM118.644 468.444C119.82 468.444 120.924 468.168 121.956 467.616C122.988 467.064 123.816 466.236 124.44 465.132C125.088 464.028 125.412 462.684 125.412 461.1C125.412 459.516 125.1 458.172 124.476 457.068C123.852 455.964 123.036 455.148 122.028 454.62C121.02 454.068 119.928 453.792 118.752 453.792C117.552 453.792 116.448 454.068 115.44 454.62C114.456 455.148 113.664 455.964 113.064 457.068C112.464 458.172 112.164 459.516 112.164 461.1C112.164 462.708 112.452 464.064 113.028 465.168C113.628 466.272 114.42 467.1 115.404 467.652C116.388 468.18 117.468 468.444 118.644 468.444ZM159.347 451.272L153.191 471H149.807L145.055 455.34L140.303 471H136.919L130.727 451.272H134.075L138.611 467.832L143.507 451.272H146.855L151.643 467.868L156.107 451.272H159.347ZM180.598 460.38C180.598 461.004 180.562 461.664 180.49 462.36H164.722C164.842 464.304 165.502 465.828 166.702 466.932C167.926 468.012 169.402 468.552 171.13 468.552C172.546 468.552 173.722 468.228 174.658 467.58C175.618 466.908 176.29 466.02 176.674 464.916H180.202C179.674 466.812 178.618 468.36 177.034 469.56C175.45 470.736 173.482 471.324 171.13 471.324C169.258 471.324 167.578 470.904 166.09 470.064C164.626 469.224 163.474 468.036 162.634 466.5C161.794 464.94 161.374 463.14 161.374 461.1C161.374 459.06 161.782 457.272 162.598 455.736C163.414 454.2 164.554 453.024 166.018 452.208C167.506 451.368 169.21 450.948 171.13 450.948C173.002 450.948 174.658 451.356 176.098 452.172C177.538 452.988 178.642 454.116 179.41 455.556C180.202 456.972 180.598 458.58 180.598 460.38ZM177.214 459.696C177.214 458.448 176.938 457.38 176.386 456.492C175.834 455.58 175.078 454.896 174.118 454.44C173.182 453.96 172.138 453.72 170.986 453.72C169.33 453.72 167.914 454.248 166.738 455.304C165.586 456.36 164.926 457.824 164.758 459.696H177.214ZM188.198 454.476C188.774 453.348 189.59 452.472 190.646 451.848C191.726 451.224 193.034 450.912 194.57 450.912V454.296H193.706C190.034 454.296 188.198 456.288 188.198 460.272V471H184.922V451.272H188.198V454.476Z" fill="black"/>
<path d="M257.511 471.252C255.855 471.252 254.367 470.964 253.047 470.388C251.751 469.788 250.731 468.972 249.987 467.94C249.243 466.884 248.859 465.672 248.835 464.304H252.327C252.447 465.48 252.927 466.476 253.767 467.292C254.631 468.084 255.879 468.48 257.511 468.48C259.071 468.48 260.295 468.096 261.183 467.328C262.095 466.536 262.551 465.528 262.551 464.304C262.551 463.344 262.287 462.564 261.759 461.964C261.231 461.364 260.571 460.908 259.779 460.596C258.987 460.284 257.919 459.948 256.575 459.588C254.919 459.156 253.587 458.724 252.579 458.292C251.595 457.86 250.743 457.188 250.023 456.276C249.327 455.34 248.979 454.092 248.979 452.532C248.979 451.164 249.327 449.952 250.023 448.896C250.719 447.84 251.691 447.024 252.939 446.448C254.211 445.872 255.663 445.584 257.295 445.584C259.647 445.584 261.567 446.172 263.055 447.348C264.567 448.524 265.419 450.084 265.611 452.028H262.011C261.891 451.068 261.387 450.228 260.499 449.508C259.611 448.764 258.435 448.392 256.971 448.392C255.603 448.392 254.487 448.752 253.623 449.472C252.759 450.168 252.327 451.152 252.327 452.424C252.327 453.336 252.579 454.08 253.083 454.656C253.611 455.232 254.247 455.676 254.991 455.988C255.759 456.276 256.827 456.612 258.195 456.996C259.851 457.452 261.183 457.908 262.191 458.364C263.199 458.796 264.063 459.48 264.783 460.416C265.503 461.328 265.863 462.576 265.863 464.16C265.863 465.384 265.539 466.536 264.891 467.616C264.243 468.696 263.283 469.572 262.011 470.244C260.739 470.916 259.239 471.252 257.511 471.252ZM273.96 454.908C274.608 453.78 275.568 452.844 276.84 452.1C278.136 451.332 279.636 450.948 281.34 450.948C283.092 450.948 284.676 451.368 286.092 452.208C287.532 453.048 288.66 454.236 289.476 455.772C290.292 457.284 290.7 459.048 290.7 461.064C290.7 463.056 290.292 464.832 289.476 466.392C288.66 467.952 287.532 469.164 286.092 470.028C284.676 470.892 283.092 471.324 281.34 471.324C279.66 471.324 278.172 470.952 276.876 470.208C275.604 469.44 274.632 468.492 273.96 467.364V480.36H270.684V451.272H273.96V454.908ZM287.352 461.064C287.352 459.576 287.052 458.28 286.452 457.176C285.852 456.072 285.036 455.232 284.004 454.656C282.996 454.08 281.88 453.792 280.656 453.792C279.456 453.792 278.34 454.092 277.308 454.692C276.3 455.268 275.484 456.12 274.86 457.248C274.26 458.352 273.96 459.636 273.96 461.1C273.96 462.588 274.26 463.896 274.86 465.024C275.484 466.128 276.3 466.98 277.308 467.58C278.34 468.156 279.456 468.444 280.656 468.444C281.88 468.444 282.996 468.156 284.004 467.58C285.036 466.98 285.852 466.128 286.452 465.024C287.052 463.896 287.352 462.576 287.352 461.064ZM313.012 460.38C313.012 461.004 312.976 461.664 312.904 462.36H297.136C297.256 464.304 297.916 465.828 299.116 466.932C300.34 468.012 301.816 468.552 303.544 468.552C304.96 468.552 306.136 468.228 307.072 467.58C308.032 466.908 308.704 466.02 309.088 464.916H312.616C312.088 466.812 311.032 468.36 309.448 469.56C307.864 470.736 305.896 471.324 303.544 471.324C301.672 471.324 299.992 470.904 298.504 470.064C297.04 469.224 295.888 468.036 295.048 466.5C294.208 464.94 293.788 463.14 293.788 461.1C293.788 459.06 294.196 457.272 295.012 455.736C295.828 454.2 296.968 453.024 298.432 452.208C299.92 451.368 301.624 450.948 303.544 450.948C305.416 450.948 307.072 451.356 308.512 452.172C309.952 452.988 311.056 454.116 311.824 455.556C312.616 456.972 313.012 458.58 313.012 460.38ZM309.628 459.696C309.628 458.448 309.352 457.38 308.8 456.492C308.248 455.58 307.492 454.896 306.532 454.44C305.596 453.96 304.552 453.72 303.4 453.72C301.744 453.72 300.328 454.248 299.152 455.304C298 456.36 297.34 457.824 297.172 459.696H309.628ZM335.336 460.38C335.336 461.004 335.3 461.664 335.228 462.36H319.46C319.58 464.304 320.24 465.828 321.44 466.932C322.664 468.012 324.14 468.552 325.868 468.552C327.284 468.552 328.46 468.228 329.396 467.58C330.356 466.908 331.028 466.02 331.412 464.916H334.94C334.412 466.812 333.356 468.36 331.772 469.56C330.188 470.736 328.22 471.324 325.868 471.324C323.996 471.324 322.316 470.904 320.828 470.064C319.364 469.224 318.212 468.036 317.372 466.5C316.532 464.94 316.112 463.14 316.112 461.1C316.112 459.06 316.52 457.272 317.336 455.736C318.152 454.2 319.292 453.024 320.756 452.208C322.244 451.368 323.948 450.948 325.868 450.948C327.74 450.948 329.396 451.356 330.836 452.172C332.276 452.988 333.38 454.116 334.148 455.556C334.94 456.972 335.336 458.58 335.336 460.38ZM331.952 459.696C331.952 458.448 331.676 457.38 331.124 456.492C330.572 455.58 329.816 454.896 328.856 454.44C327.92 453.96 326.876 453.72 325.724 453.72C324.068 453.72 322.652 454.248 321.476 455.304C320.324 456.36 319.664 457.824 319.496 459.696H331.952ZM338.437 461.064C338.437 459.048 338.845 457.284 339.661 455.772C340.477 454.236 341.593 453.048 343.009 452.208C344.449 451.368 346.057 450.948 347.833 450.948C349.369 450.948 350.797 451.308 352.117 452.028C353.437 452.724 354.445 453.648 355.141 454.8V444.36H358.453V471H355.141V467.292C354.493 468.468 353.533 469.44 352.261 470.208C350.989 470.952 349.501 471.324 347.797 471.324C346.045 471.324 344.449 470.892 343.009 470.028C341.593 469.164 340.477 467.952 339.661 466.392C338.845 464.832 338.437 463.056 338.437 461.064ZM355.141 461.1C355.141 459.612 354.841 458.316 354.241 457.212C353.641 456.108 352.825 455.268 351.793 454.692C350.785 454.092 349.669 453.792 348.445 453.792C347.221 453.792 346.105 454.08 345.097 454.656C344.089 455.232 343.285 456.072 342.685 457.176C342.085 458.28 341.785 459.576 341.785 461.064C341.785 462.576 342.085 463.896 342.685 465.024C343.285 466.128 344.089 466.98 345.097 467.58C346.105 468.156 347.221 468.444 348.445 468.444C349.669 468.444 350.785 468.156 351.793 467.58C352.825 466.98 353.641 466.128 354.241 465.024C354.841 463.896 355.141 462.588 355.141 461.1Z" fill="black"/>
<path d="M397.888 471.252C396.232 471.252 394.744 470.964 393.424 470.388C392.128 469.788 391.108 468.972 390.364 467.94C389.62 466.884 389.236 465.672 389.212 464.304H392.704C392.824 465.48 393.304 466.476 394.144 467.292C395.008 468.084 396.256 468.48 397.888 468.48C399.448 468.48 400.672 468.096 401.56 467.328C402.472 466.536 402.928 465.528 402.928 464.304C402.928 463.344 402.664 462.564 402.136 461.964C401.608 461.364 400.948 460.908 400.156 460.596C399.364 460.284 398.296 459.948 396.952 459.588C395.296 459.156 393.964 458.724 392.956 458.292C391.972 457.86 391.12 457.188 390.4 456.276C389.704 455.34 389.356 454.092 389.356 452.532C389.356 451.164 389.704 449.952 390.4 448.896C391.096 447.84 392.068 447.024 393.316 446.448C394.588 445.872 396.04 445.584 397.672 445.584C400.024 445.584 401.944 446.172 403.432 447.348C404.944 448.524 405.796 450.084 405.988 452.028H402.388C402.268 451.068 401.764 450.228 400.876 449.508C399.988 448.764 398.812 448.392 397.348 448.392C395.98 448.392 394.864 448.752 394 449.472C393.136 450.168 392.704 451.152 392.704 452.424C392.704 453.336 392.956 454.08 393.46 454.656C393.988 455.232 394.624 455.676 395.368 455.988C396.136 456.276 397.204 456.612 398.572 456.996C400.228 457.452 401.56 457.908 402.568 458.364C403.576 458.796 404.44 459.48 405.16 460.416C405.88 461.328 406.24 462.576 406.24 464.16C406.24 465.384 405.916 466.536 405.268 467.616C404.62 468.696 403.66 469.572 402.388 470.244C401.116 470.916 399.616 471.252 397.888 471.252ZM415.057 453.972V465.6C415.057 466.56 415.261 467.244 415.669 467.652C416.077 468.036 416.785 468.228 417.793 468.228H420.205V471H417.253C415.429 471 414.061 470.58 413.149 469.74C412.237 468.9 411.781 467.52 411.781 465.6V453.972H409.225V451.272H411.781V446.304H415.057V451.272H420.205V453.972H415.057ZM432.778 471.324C430.93 471.324 429.25 470.904 427.738 470.064C426.25 469.224 425.074 468.036 424.21 466.5C423.37 464.94 422.95 463.14 422.95 461.1C422.95 459.084 423.382 457.308 424.246 455.772C425.134 454.212 426.334 453.024 427.846 452.208C429.358 451.368 431.05 450.948 432.922 450.948C434.794 450.948 436.486 451.368 437.998 452.208C439.51 453.024 440.698 454.2 441.562 455.736C442.45 457.272 442.894 459.06 442.894 461.1C442.894 463.14 442.438 464.94 441.526 466.5C440.638 468.036 439.426 469.224 437.89 470.064C436.354 470.904 434.65 471.324 432.778 471.324ZM432.778 468.444C433.954 468.444 435.058 468.168 436.09 467.616C437.122 467.064 437.95 466.236 438.574 465.132C439.222 464.028 439.546 462.684 439.546 461.1C439.546 459.516 439.234 458.172 438.61 457.068C437.986 455.964 437.17 455.148 436.162 454.62C435.154 454.068 434.062 453.792 432.886 453.792C431.686 453.792 430.582 454.068 429.574 454.62C428.59 455.148 427.798 455.964 427.198 457.068C426.598 458.172 426.298 459.516 426.298 461.1C426.298 462.708 426.586 464.064 427.162 465.168C427.762 466.272 428.554 467.1 429.538 467.652C430.522 468.18 431.602 468.444 432.778 468.444ZM450.478 454.476C451.054 453.348 451.87 452.472 452.926 451.848C454.006 451.224 455.314 450.912 456.85 450.912V454.296H455.986C452.314 454.296 450.478 456.288 450.478 460.272V471H447.202V451.272H450.478V454.476ZM459.407 461.064C459.407 459.048 459.815 457.284 460.631 455.772C461.447 454.236 462.563 453.048 463.979 452.208C465.419 451.368 467.015 450.948 468.767 450.948C470.495 450.948 471.995 451.32 473.267 452.064C474.539 452.808 475.487 453.744 476.111 454.872V451.272H479.423V471H476.111V467.328C475.463 468.48 474.491 469.44 473.195 470.208C471.923 470.952 470.435 471.324 468.731 471.324C466.979 471.324 465.395 470.892 463.979 470.028C462.563 469.164 461.447 467.952 460.631 466.392C459.815 464.832 459.407 463.056 459.407 461.064ZM476.111 461.1C476.111 459.612 475.811 458.316 475.211 457.212C474.611 456.108 473.795 455.268 472.763 454.692C471.755 454.092 470.639 453.792 469.415 453.792C468.191 453.792 467.075 454.08 466.067 454.656C465.059 455.232 464.255 456.072 463.655 457.176C463.055 458.28 462.755 459.576 462.755 461.064C462.755 462.576 463.055 463.896 463.655 465.024C464.255 466.128 465.059 466.98 466.067 467.58C467.075 468.156 468.191 468.444 469.415 468.444C470.639 468.444 471.755 468.156 472.763 467.58C473.795 466.98 474.611 466.128 475.211 465.024C475.811 463.896 476.111 462.588 476.111 461.1ZM493.096 450.948C494.8 450.948 496.288 451.32 497.56 452.064C498.856 452.808 499.816 453.744 500.44 454.872V451.272H503.752V471.432C503.752 473.232 503.368 474.828 502.6 476.22C501.832 477.636 500.728 478.74 499.288 479.532C497.872 480.324 496.216 480.72 494.32 480.72C491.728 480.72 489.568 480.108 487.84 478.884C486.112 477.66 485.092 475.992 484.78 473.88H488.02C488.38 475.08 489.124 476.04 490.252 476.76C491.38 477.504 492.736 477.876 494.32 477.876C496.12 477.876 497.584 477.312 498.712 476.184C499.864 475.056 500.44 473.472 500.44 471.432V467.292C499.792 468.444 498.832 469.404 497.56 470.172C496.288 470.94 494.8 471.324 493.096 471.324C491.344 471.324 489.748 470.892 488.308 470.028C486.892 469.164 485.776 467.952 484.96 466.392C484.144 464.832 483.736 463.056 483.736 461.064C483.736 459.048 484.144 457.284 484.96 455.772C485.776 454.236 486.892 453.048 488.308 452.208C489.748 451.368 491.344 450.948 493.096 450.948ZM500.44 461.1C500.44 459.612 500.14 458.316 499.54 457.212C498.94 456.108 498.124 455.268 497.092 454.692C496.084 454.092 494.968 453.792 493.744 453.792C492.52 453.792 491.404 454.08 490.396 454.656C489.388 455.232 488.584 456.072 487.984 457.176C487.384 458.28 487.084 459.576 487.084 461.064C487.084 462.576 487.384 463.896 487.984 465.024C488.584 466.128 489.388 466.98 490.396 467.58C491.404 468.156 492.52 468.444 493.744 468.444C494.968 468.444 496.084 468.156 497.092 467.58C498.124 466.98 498.94 466.128 499.54 465.024C500.14 463.896 500.44 462.588 500.44 461.1ZM527.288 460.38C527.288 461.004 527.252 461.664 527.18 462.36H511.412C511.532 464.304 512.192 465.828 513.392 466.932C514.616 468.012 516.092 468.552 517.82 468.552C519.236 468.552 520.412 468.228 521.348 467.58C522.308 466.908 522.98 466.02 523.364 464.916H526.892C526.364 466.812 525.308 468.36 523.724 469.56C522.14 470.736 520.172 471.324 517.82 471.324C515.948 471.324 514.268 470.904 512.78 470.064C511.316 469.224 510.164 468.036 509.324 466.5C508.484 464.94 508.064 463.14 508.064 461.1C508.064 459.06 508.472 457.272 509.288 455.736C510.104 454.2 511.244 453.024 512.708 452.208C514.196 451.368 515.9 450.948 517.82 450.948C519.692 450.948 521.348 451.356 522.788 452.172C524.228 452.988 525.332 454.116 526.1 455.556C526.892 456.972 527.288 458.58 527.288 460.38ZM523.904 459.696C523.904 458.448 523.628 457.38 523.076 456.492C522.524 455.58 521.768 454.896 520.808 454.44C519.872 453.96 518.828 453.72 517.676 453.72C516.02 453.72 514.604 454.248 513.428 455.304C512.276 456.36 511.616 457.824 511.448 459.696H523.904Z" fill="black"/>
<defs>
<filter id="filter0_d_5_9" x="87" y="248" width="108" height="185" filterUnits="userSpaceOnUse" color-interpolation-filters="sRGB">
<feFlood flood-opacity="0" result="BackgroundImageFix"/>
<feColorMatrix in="SourceAlpha" type="matrix" values="0 0 0 0 0 0 0 0 0 0 0 0 0 0 0 0 0 0 127 0" result="hardAlpha"/>
<feMorphology radius="2" operator="dilate" in="SourceAlpha" result="effect1_dropShadow_5_9"/>
<feOffset/>
<feGaussianBlur stdDeviation="5"/>
<feComposite in2="hardAlpha" operator="out"/>
<feColorMatrix type="matrix" values="0 0 0 0 0.951752 0 0 0 0 0.706563 0 0 0 0 0.991667 0 0 0 1 0"/>
<feBlend mode="normal" in2="BackgroundImageFix" result="effect1_dropShadow_5_9"/>
<feBlend mode="normal" in="SourceGraphic" in2="effect1_dropShadow_5_9" result="shape"/>
</filter>
<filter id="filter1_d_5_9" x="250" y="341" width="108" height="92" filterUnits="userSpaceOnUse" color-interpolation-filters="sRGB">
<feFlood flood-opacity="0" result="BackgroundImageFix"/>
<feColorMatrix in="SourceAlpha" type="matrix" values="0 0 0 0 0 0 0 0 0 0 0 0 0 0 0 0 0 0 127 0" result="hardAlpha"/>
<feMorphology radius="2" operator="dilate" in="SourceAlpha" result="effect1_dropShadow_5_9"/>
<feOffset/>
<feGaussianBlur stdDeviation="5"/>
<feComposite in2="hardAlpha" operator="out"/>
<feColorMatrix type="matrix" values="0 0 0 0 0.951752 0 0 0 0 0.706563 0 0 0 0 0.991667 0 0 0 1 0"/>
<feBlend mode="normal" in2="BackgroundImageFix" result="effect1_dropShadow_5_9"/>
<feBlend mode="normal" in="SourceGraphic" in2="effect1_dropShadow_5_9" result="shape"/>
</filter>
<filter id="filter2_d_5_9" x="413" y="126" width="108" height="307" filterUnits="userSpaceOnUse" color-interpolation-filters="sRGB">
<feFlood flood-opacity="0" result="BackgroundImageFix"/>
<feColorMatrix in="SourceAlpha" type="matrix" values="0 0 0 0 0 0 0 0 0 0 0 0 0 0 0 0 0 0 127 0" result="hardAlpha"/>
<feMorphology radius="2" operator="dilate" in="SourceAlpha" result="effect1_dropShadow_5_9"/>
<feOffset/>
<feGaussianBlur stdDeviation="5"/>
<feComposite in2="hardAlpha" operator="out"/>
<feColorMatrix type="matrix" values="0 0 0 0 0.951752 0 0 0 0 0.706563 0 0 0 0 0.991667 0 0 0 1 0"/>
<feBlend mode="normal" in2="BackgroundImageFix" result="effect1_dropShadow_5_9"/>
<feBlend mode="normal" in="SourceGraphic" in2="effect1_dropShadow_5_9" result="shape"/>
</filter>
<linearGradient id="paint0_linear_5_9" x1="141" y1="260" x2="141" y2="421" gradientUnits="userSpaceOnUse">
<stop stop-color="#EC9EFF"/>
<stop offset="1" stop-color="#A45CFF"/>
</linearGradient>
<linearGradient id="paint1_linear_5_9" x1="304" y1="353" x2="304" y2="421" gradientUnits="userSpaceOnUse">
<stop stop-color="#EC9EFF"/>
<stop offset="1" stop-color="#A45CFF"/>
</linearGradient>
<linearGradient id="paint2_linear_5_9" x1="467" y1="138" x2="467" y2="421" gradientUnits="userSpaceOnUse">
<stop stop-color="#EC9EFF"/>
<stop offset="1" stop-color="#A45CFF"/>
</linearGradient>
</defs>
</svg>
